Helius-Light.ufo
<glyph name="exclam" format="2">
  <advance width="205"/>
  <unicode hex="0021"/>
  <outline>
    <contour>
      <point x="75" y="0" type="line"/>
      <point x="130" y="0" type="line"/>
      <point x="130" y="70" type="line"/>
      <point x="75" y="70" type="line"/>
    </contour>
    <contour>
      <point x="75" y="627" type="line"/>
      <point x="75" y="406" type="line"/>
      <point x="89" y="182" type="line"/>
      <point x="117" y="182" type="line"/>
      <point x="130" y="406" type="line"/>
      <point x="130" y="627" type="line"/>
    </contour>
  </outline>
</glyph>
<glyph name="numbersign" format="2">
  <advance width="519"/>
  <unicode hex="0023"/>
  <outline>
    <contour>
      <point x="464" y="368" type="line"/>
      <point x="464" y="396" type="line"/>
      <point x="383" y="396" type="line"/>
      <point x="412" y="603" type="line"/>
      <point x="384" y="603" type="line"/>
      <point x="355" y="396" type="line"/>
      <point x="201" y="396" type="line"/>
      <point x="230" y="603" type="line"/>
      <point x="202" y="603" type="line"/>
      <point x="173" y="396" type="line"/>
      <point x="79" y="396" type="line"/>
      <point x="79" y="368" type="line"/>
      <point x="169" y="368" type="line"/>
      <point x="150" y="230" type="line"/>
      <point x="55" y="230" type="line"/>
      <point x="55" y="202" type="line"/>
      <point x="146" y="202" type="line"/>
      <point x="118" y="0" type="line"/>
      <point x="146" y="0" type="line"/>
      <point x="174" y="202" type="line"/>
      <point x="328" y="202" type="line"/>
      <point x="300" y="0" type="line"/>
      <point x="328" y="0" type="line"/>
      <point x="356" y="202" type="line"/>
      <point x="439" y="202" type="line"/>
      <point x="439" y="230" type="line"/>
      <point x="360" y="230" type="line"/>
      <point x="379" y="368" type="line"/>
    </contour>
    <contour>
      <point x="332" y="230" type="line"/>
      <point x="178" y="230" type="line"/>
      <point x="197" y="368" type="line"/>
      <point x="351" y="368" type="line"/>
    </contour>
  </outline>
</glyph>
<glyph name="dollar" format="2">
  <advance width="486"/>
  <unicode hex="0024"/>
  <outline>
    <contour>
      <point x="372" y="245" type="curve" smooth="yes"/>
      <point x="340" y="265"/>
      <point x="298" y="275"/>
      <point x="257" y="286" type="curve"/>
      <point x="257" y="489" type="line"/>
      <point x="308" y="485"/>
      <point x="388" y="461"/>
      <point x="388" y="356" type="curve"/>
      <point x="416" y="356" type="line"/>
      <point x="416" y="456"/>
      <point x="351" y="510"/>
      <point x="257" y="517" type="curve"/>
      <point x="257" y="603" type="line"/>
      <point x="229" y="603" type="line"/>
      <point x="229" y="518" type="line"/>
      <point x="156" y="518"/>
      <point x="73" y="478"/>
      <point x="73" y="395" type="curve" smooth="yes"/>
      <point x="73" y="308"/>
      <point x="160" y="282"/>
      <point x="229" y="264" type="curve"/>
      <point x="229" y="29" type="line"/>
      <point x="154" y="37"/>
      <point x="83" y="82"/>
      <point x="83" y="164" type="curve" smooth="yes"/>
      <point x="83" y="169"/>
      <point x="83" y="173"/>
      <point x="84" y="177" type="curve"/>
      <point x="56" y="180" type="line"/>
      <point x="55" y="175"/>
      <point x="55" y="169"/>
      <point x="55" y="164" type="curve" smooth="yes"/>
      <point x="55" y="66"/>
      <point x="138" y="9"/>
      <point x="229" y="1" type="curve"/>
      <point x="229" y="-85" type="line"/>
      <point x="257" y="-85" type="line"/>
      <point x="257" y="0" type="line"/>
      <point x="344" y="0"/>
      <point x="431" y="48"/>
      <point x="431" y="144" type="curve" smooth="yes"/>
      <point x="431" y="189"/>
      <point x="412" y="222"/>
    </contour>
    <contour>
      <point x="101" y="394" type="curve" smooth="yes"/>
      <point x="101" y="450"/>
      <point x="154" y="490"/>
      <point x="229" y="490" type="curve"/>
      <point x="229" y="293" type="line"/>
      <point x="177" y="307"/>
      <point x="101" y="328"/>
    </contour>
    <contour>
      <point x="257" y="28" type="curve"/>
      <point x="257" y="257" type="line"/>
      <point x="294" y="248"/>
      <point x="331" y="237"/>
      <point x="358" y="221" type="curve" smooth="yes"/>
      <point x="389" y="203"/>
      <point x="403" y="179"/>
      <point x="403" y="143" type="curve" smooth="yes"/>
      <point x="403" y="60"/>
      <point x="325" y="28"/>
    </contour>
  </outline>
</glyph>
<glyph name="percent" format="2">
  <advance width="554"/>
  <unicode hex="0025"/>
  <outline>
    <contour>
      <point x="406" y="238" type="curve" smooth="yes"/>
      <point x="338" y="238"/>
      <point x="302" y="182"/>
      <point x="302" y="119" type="curve" smooth="yes"/>
      <point x="302" y="56"/>
      <point x="338" y="0"/>
      <point x="406" y="0" type="curve" smooth="yes"/>
      <point x="473" y="0"/>
      <point x="509" y="56"/>
      <point x="509" y="119" type="curve" smooth="yes"/>
      <point x="509" y="182"/>
      <point x="473" y="238"/>
    </contour>
    <contour>
      <point x="406" y="28" type="curve" smooth="yes"/>
      <point x="350" y="28"/>
      <point x="330" y="77"/>
      <point x="330" y="119" type="curve" smooth="yes"/>
      <point x="330" y="161"/>
      <point x="350" y="210"/>
      <point x="406" y="210" type="curve" smooth="yes"/>
      <point x="461" y="210"/>
      <point x="481" y="161"/>
      <point x="481" y="119" type="curve" smooth="yes"/>
      <point x="481" y="77"/>
      <point x="461" y="28"/>
    </contour>
    <contour>
      <point x="252" y="399" type="curve" smooth="yes"/>
      <point x="252" y="462"/>
      <point x="216" y="518"/>
      <point x="148" y="518" type="curve" smooth="yes"/>
      <point x="81" y="518"/>
      <point x="45" y="462"/>
      <point x="45" y="399" type="curve" smooth="yes"/>
      <point x="45" y="336"/>
      <point x="81" y="280"/>
      <point x="148" y="280" type="curve" smooth="yes"/>
      <point x="216" y="280"/>
      <point x="252" y="336"/>
    </contour>
    <contour>
      <point x="73" y="399" type="curve" smooth="yes"/>
      <point x="73" y="441"/>
      <point x="93" y="490"/>
      <point x="148" y="490" type="curve" smooth="yes"/>
      <point x="204" y="490"/>
      <point x="224" y="441"/>
      <point x="224" y="399" type="curve" smooth="yes"/>
      <point x="224" y="357"/>
      <point x="204" y="308"/>
      <point x="148" y="308" type="curve" smooth="yes"/>
      <point x="93" y="308"/>
      <point x="73" y="357"/>
    </contour>
    <contour>
      <point x="425" y="518" type="line"/>
      <point x="96" y="0" type="line"/>
      <point x="129" y="0" type="line"/>
      <point x="458" y="518" type="line"/>
    </contour>
  </outline>
</glyph>
<glyph name="ampersand" format="2">
  <advance width="585"/>
  <unicode hex="0026"/>
  <outline>
    <contour>
      <point x="530" y="0" type="line"/>
      <point x="439" y="97" type="line"/>
      <point x="470" y="134"/>
      <point x="496" y="178"/>
      <point x="511" y="223" type="curve" smooth="yes"/>
      <point x="513" y="232" type="line"/>
      <point x="484" y="232" type="line"/>
      <point x="471" y="192"/>
      <point x="447" y="150"/>
      <point x="420" y="117" type="curve"/>
      <point x="176" y="377" type="line"/>
      <point x="164" y="389"/>
      <point x="127" y="429"/>
      <point x="127" y="478" type="curve" smooth="yes"/>
      <point x="127" y="530"/>
      <point x="170" y="575"/>
      <point x="226" y="575" type="curve" smooth="yes"/>
      <point x="282" y="575"/>
      <point x="324" y="530"/>
      <point x="324" y="471" type="curve"/>
      <point x="352" y="471" type="line"/>
      <point x="352" y="543"/>
      <point x="300" y="603"/>
      <point x="227" y="603" type="curve" smooth="yes"/>
      <point x="155" y="603"/>
      <point x="99" y="545"/>
      <point x="99" y="477" type="curve" smooth="yes"/>
      <point x="99" y="420"/>
      <point x="139" y="375"/>
      <point x="156" y="358" type="curve" smooth="yes"/>
      <point x="158" y="355" type="line"/>
      <point x="100" y="316"/>
      <point x="55" y="256"/>
      <point x="55" y="183" type="curve" smooth="yes"/>
      <point x="55" y="77"/>
      <point x="149" y="0"/>
      <point x="253" y="0" type="curve" smooth="yes"/>
      <point x="319" y="0"/>
      <point x="375" y="30"/>
      <point x="420" y="76" type="curve"/>
      <point x="491" y="0" type="line"/>
    </contour>
    <contour>
      <point x="253" y="28" type="curve" smooth="yes"/>
      <point x="164" y="28"/>
      <point x="83" y="92"/>
      <point x="83" y="182" type="curve" smooth="yes"/>
      <point x="83" y="241"/>
      <point x="117" y="294"/>
      <point x="178" y="334" type="curve"/>
      <point x="401" y="96" type="line"/>
      <point x="358" y="51"/>
      <point x="308" y="28"/>
    </contour>
  </outline>
</glyph>
<glyph name="quotesingle" format="2">
  <advance width="142"/>
  <unicode hex="0027"/>
  <outline>
    <contour>
      <point x="53" y="624" type="line"/>
      <point x="60" y="565"/>
      <point x="93" y="488"/>
      <point x="117" y="460" type="curve"/>
      <point x="83" y="460" type="line"/>
      <point x="57" y="501"/>
      <point x="30" y="570"/>
      <point x="25" y="624" type="curve"/>
    </contour>
  </outline>
</glyph>
<glyph name="parenleft" format="2">
  <advance width="212"/>
  <unicode hex="0028"/>
  <outline>
    <contour>
      <point x="155" y="680" type="line"/>
      <point x="86" y="564"/>
      <point x="45" y="433"/>
      <point x="45" y="297" type="curve" smooth="yes"/>
      <point x="45" y="161"/>
      <point x="86" y="29"/>
      <point x="156" y="-87" type="curve"/>
      <point x="187" y="-87" type="line"/>
      <point x="117" y="29"/>
      <point x="76" y="160"/>
      <point x="76" y="297" type="curve" smooth="yes"/>
      <point x="76" y="435"/>
      <point x="117" y="565"/>
      <point x="186" y="680" type="curve"/>
    </contour>
  </outline>
</glyph>
<glyph name="parenright" format="2">
  <advance width="212"/>
  <unicode hex="0029"/>
  <outline>
    <contour>
      <point x="56" y="680" type="line"/>
      <point x="126" y="564"/>
      <point x="167" y="433"/>
      <point x="167" y="297" type="curve" smooth="yes"/>
      <point x="167" y="161"/>
      <point x="125" y="29"/>
      <point x="56" y="-87" type="curve"/>
      <point x="25" y="-87" type="line"/>
      <point x="94" y="29"/>
      <point x="136" y="160"/>
      <point x="136" y="297" type="curve" smooth="yes"/>
      <point x="136" y="435"/>
      <point x="95" y="565"/>
      <point x="26" y="680" type="curve"/>
    </contour>
  </outline>
</glyph>
<glyph name="asterisk" format="2">
  <advance width="435"/>
  <unicode hex="002A"/>
  <outline>
    <contour>
      <point x="380" y="379" type="line"/>
      <point x="371" y="406" type="line"/>
      <point x="231" y="361" type="line"/>
      <point x="231" y="507" type="line"/>
      <point x="203" y="507" type="line"/>
      <point x="203" y="361" type="line"/>
      <point x="64" y="406" type="line"/>
      <point x="55" y="379" type="line"/>
      <point x="195" y="334" type="line"/>
      <point x="108" y="215" type="line"/>
      <point x="131" y="199" type="line"/>
      <point x="217" y="318" type="line"/>
      <point x="304" y="199" type="line"/>
      <point x="326" y="215" type="line"/>
      <point x="240" y="334" type="line"/>
    </contour>
  </outline>
</glyph>
<glyph name="plus" format="2">
  <advance width="410"/>
  <unicode hex="002B"/>
  <outline>
    <contour>
      <point x="385" y="268" type="line"/>
      <point x="219" y="268" type="line"/>
      <point x="219" y="434" type="line"/>
      <point x="191" y="434" type="line"/>
      <point x="191" y="268" type="line"/>
      <point x="25" y="268" type="line"/>
      <point x="25" y="240" type="line"/>
      <point x="191" y="240" type="line"/>
      <point x="191" y="74" type="line"/>
      <point x="219" y="74" type="line"/>
      <point x="219" y="240" type="line"/>
      <point x="385" y="240" type="line"/>
    </contour>
  </outline>
</glyph>
<glyph name="comma" format="2">
  <advance width="142"/>
  <unicode hex="002C"/>
  <outline>
    <contour>
      <point x="89" y="76" type="line"/>
      <point x="83" y="17"/>
      <point x="49" y="-60"/>
      <point x="25" y="-88" type="curve"/>
      <point x="59" y="-88" type="line"/>
      <point x="86" y="-47"/>
      <point x="112" y="22"/>
      <point x="117" y="76" type="curve"/>
    </contour>
  </outline>
</glyph>
<glyph name="hyphen" format="2">
  <advance width="193"/>
  <unicode hex="002D"/>
  <outline>
    <contour>
      <point x="168" y="350" type="line"/>
      <point x="25" y="350" type="line"/>
      <point x="25" y="378" type="line"/>
      <point x="168" y="378" type="line"/>
    </contour>
  </outline>
</glyph>
<glyph name="period" format="2">
  <advance width="105"/>
  <unicode hex="002E"/>
  <outline>
    <contour>
      <point x="80" y="0" type="line"/>
      <point x="25" y="0" type="line"/>
      <point x="25" y="70" type="line"/>
      <point x="80" y="70" type="line"/>
    </contour>
  </outline>
</glyph>
<glyph name="slash" format="2">
  <advance width="474"/>
  <unicode hex="002F"/>
  <outline>
    <contour>
      <point x="419" y="679" type="line"/>
      <point x="25" y="-169" type="line"/>
      <point x="56" y="-169" type="line"/>
      <point x="449" y="679" type="line"/>
    </contour>
  </outline>
</glyph>
<glyph name="zero" format="2">
  <advance width="498"/>
  <unicode hex="0030"/>
  <outline>
    <contour>
      <point x="249" y="-5" type="curve" smooth="yes"/>
      <point x="95" y="-5"/>
      <point x="45" y="171"/>
      <point x="45" y="301" type="curve" smooth="yes"/>
      <point x="45" y="429"/>
      <point x="93" y="608"/>
      <point x="248" y="608" type="curve" smooth="yes"/>
      <point x="403" y="608"/>
      <point x="453" y="431"/>
      <point x="453" y="302" type="curve" smooth="yes"/>
      <point x="453" y="176"/>
      <point x="405" y="-5"/>
    </contour>
    <contour>
      <point x="250" y="580" type="curve" smooth="yes"/>
      <point x="113" y="580"/>
      <point x="73" y="414"/>
      <point x="73" y="302" type="curve" smooth="yes"/>
      <point x="73" y="193"/>
      <point x="111" y="23"/>
      <point x="249" y="23" type="curve" smooth="yes"/>
      <point x="384" y="23"/>
      <point x="425" y="190"/>
      <point x="425" y="301" type="curve" smooth="yes"/>
      <point x="425" y="410"/>
      <point x="387" y="580"/>
    </contour>
  </outline>
</glyph>
<glyph name="one" format="2">
  <advance width="252"/>
  <unicode hex="0031"/>
  <outline>
    <contour>
      <point x="128" y="603" type="line"/>
      <point x="25" y="533" type="line"/>
      <point x="41" y="509" type="line"/>
      <point x="139" y="576" type="line"/>
      <point x="139" y="0" type="line"/>
      <point x="167" y="0" type="line"/>
      <point x="167" y="603" type="line"/>
    </contour>
  </outline>
</glyph>
<glyph name="two" format="2">
  <advance width="476"/>
  <unicode hex="0032"/>
  <outline>
    <contour>
      <point x="85" y="28" type="line"/>
      <point x="143" y="86"/>
      <point x="290" y="235"/>
      <point x="375" y="338" type="curve" smooth="yes"/>
      <point x="402" y="370"/>
      <point x="423" y="410"/>
      <point x="423" y="452" type="curve" smooth="yes"/>
      <point x="423" y="549"/>
      <point x="323" y="608"/>
      <point x="233" y="608" type="curve" smooth="yes"/>
      <point x="126" y="608"/>
      <point x="46" y="525"/>
      <point x="46" y="414" type="curve"/>
      <point x="74" y="414" type="line"/>
      <point x="74" y="528"/>
      <point x="160" y="580"/>
      <point x="236" y="580" type="curve" smooth="yes"/>
      <point x="309" y="580"/>
      <point x="395" y="531"/>
      <point x="395" y="452" type="curve" smooth="yes"/>
      <point x="395" y="421"/>
      <point x="381" y="389"/>
      <point x="354" y="356" type="curve" smooth="yes"/>
      <point x="256" y="237"/>
      <point x="74" y="57"/>
      <point x="45" y="28" type="curve"/>
      <point x="45" y="0" type="line"/>
      <point x="431" y="0" type="line"/>
      <point x="431" y="28" type="line"/>
    </contour>
  </outline>
</glyph>
<glyph name="three" format="2">
  <advance width="518"/>
  <unicode hex="0033"/>
  <outline>
    <contour>
      <point x="351" y="324" type="curve"/>
      <point x="407" y="344"/>
      <point x="444" y="387"/>
      <point x="444" y="448" type="curve" smooth="yes"/>
      <point x="444" y="549"/>
      <point x="345" y="608"/>
      <point x="250" y="608" type="curve" smooth="yes"/>
      <point x="140" y="608"/>
      <point x="55" y="529"/>
      <point x="55" y="412" type="curve"/>
      <point x="83" y="412" type="line"/>
      <point x="83" y="528"/>
      <point x="171" y="580"/>
      <point x="252" y="580" type="curve" smooth="yes"/>
      <point x="334" y="580"/>
      <point x="416" y="527"/>
      <point x="416" y="445" type="curve" smooth="yes"/>
      <point x="416" y="359"/>
      <point x="328" y="338"/>
      <point x="255" y="338" type="curve"/>
      <point x="255" y="310" type="line"/>
      <point x="345" y="310"/>
      <point x="435" y="276"/>
      <point x="435" y="177" type="curve" smooth="yes"/>
      <point x="435" y="88"/>
      <point x="362" y="23"/>
      <point x="266" y="23" type="curve" smooth="yes"/>
      <point x="178" y="23"/>
      <point x="83" y="76"/>
      <point x="83" y="191" type="curve"/>
      <point x="55" y="191" type="line"/>
      <point x="55" y="72"/>
      <point x="149" y="-5"/>
      <point x="262" y="-5" type="curve" smooth="yes"/>
      <point x="368" y="-5"/>
      <point x="463" y="65"/>
      <point x="463" y="174" type="curve" smooth="yes"/>
      <point x="463" y="246"/>
      <point x="420" y="301"/>
    </contour>
  </outline>
</glyph>
<glyph name="four" format="2">
  <advance width="509"/>
  <unicode hex="0034"/>
  <outline>
    <contour>
      <point x="380" y="603" type="line"/>
      <point x="349" y="603" type="line"/>
      <point x="45" y="165" type="line"/>
      <point x="45" y="134" type="line"/>
      <point x="352" y="134" type="line"/>
      <point x="352" y="0" type="line"/>
      <point x="380" y="0" type="line"/>
      <point x="380" y="134" type="line"/>
      <point x="484" y="134" type="line"/>
      <point x="484" y="162" type="line"/>
      <point x="380" y="162" type="line"/>
    </contour>
    <contour>
      <point x="352" y="162" type="line"/>
      <point x="78" y="162" type="line"/>
      <point x="352" y="558" type="line"/>
    </contour>
  </outline>
</glyph>
<glyph name="five" format="2">
  <advance width="539"/>
  <unicode hex="0035"/>
  <outline>
    <contour>
      <point x="279" y="413" type="curve" smooth="yes"/>
      <point x="214" y="413"/>
      <point x="160" y="389"/>
      <point x="124" y="346" type="curve"/>
      <point x="146" y="575" type="line"/>
      <point x="444" y="575" type="line"/>
      <point x="444" y="603" type="line"/>
      <point x="121" y="603" type="line"/>
      <point x="89" y="286" type="line"/>
      <point x="103" y="285" type="line"/>
      <point x="116" y="280" type="line"/>
      <point x="142" y="347"/>
      <point x="200" y="385"/>
      <point x="279" y="385" type="curve" smooth="yes"/>
      <point x="409" y="385"/>
      <point x="456" y="287"/>
      <point x="456" y="204" type="curve" smooth="yes"/>
      <point x="456" y="120"/>
      <point x="409" y="23"/>
      <point x="279" y="23" type="curve" smooth="yes"/>
      <point x="149" y="23"/>
      <point x="103" y="120"/>
      <point x="103" y="204" type="curve"/>
      <point x="75" y="204" type="line"/>
      <point x="75" y="81"/>
      <point x="155" y="-5"/>
      <point x="279" y="-5" type="curve" smooth="yes"/>
      <point x="404" y="-5"/>
      <point x="484" y="82"/>
      <point x="484" y="204" type="curve" smooth="yes"/>
      <point x="484" y="326"/>
      <point x="404" y="413"/>
    </contour>
  </outline>
</glyph>
<glyph name="six" format="2">
  <advance width="468"/>
  <unicode hex="0036"/>
  <outline>
    <contour>
      <point x="234" y="373" type="curve" smooth="yes"/>
      <point x="208" y="373"/>
      <point x="182" y="368"/>
      <point x="160" y="358" type="curve"/>
      <point x="332" y="603" type="line"/>
      <point x="298" y="603" type="line"/>
      <point x="83" y="298" type="line" smooth="yes"/>
      <point x="58" y="265"/>
      <point x="45" y="225"/>
      <point x="45" y="184" type="curve" smooth="yes"/>
      <point x="45" y="80"/>
      <point x="130" y="-5"/>
      <point x="234" y="-5" type="curve" smooth="yes"/>
      <point x="338" y="-5"/>
      <point x="423" y="80"/>
      <point x="423" y="184" type="curve" smooth="yes"/>
      <point x="423" y="288"/>
      <point x="338" y="373"/>
    </contour>
    <contour>
      <point x="234" y="23" type="curve" smooth="yes"/>
      <point x="145" y="23"/>
      <point x="73" y="95"/>
      <point x="73" y="184" type="curve" smooth="yes"/>
      <point x="73" y="216"/>
      <point x="82" y="246"/>
      <point x="99" y="271" type="curve" smooth="yes"/>
      <point x="106" y="281" type="line" smooth="yes"/>
      <point x="135" y="320"/>
      <point x="182" y="345"/>
      <point x="234" y="345" type="curve" smooth="yes"/>
      <point x="323" y="345"/>
      <point x="395" y="273"/>
      <point x="395" y="184" type="curve" smooth="yes"/>
      <point x="395" y="95"/>
      <point x="323" y="23"/>
    </contour>
  </outline>
</glyph>
<glyph name="seven" format="2">
  <advance width="415"/>
  <unicode hex="0037"/>
  <outline>
    <contour>
      <point x="88" y="0" type="line"/>
      <point x="119" y="0" type="line"/>
      <point x="390" y="576" type="line"/>
      <point x="390" y="603" type="line"/>
      <point x="25" y="603" type="line"/>
      <point x="25" y="575" type="line"/>
      <point x="359" y="575" type="line"/>
    </contour>
  </outline>
  <guideline angle="0" x="0" y="603"/>
</glyph>
<glyph name="eight" format="2">
  <advance width="520"/>
  <unicode hex="0038"/>
  <outline>
    <contour>
      <point x="353" y="325" type="curve"/>
      <point x="412" y="346"/>
      <point x="446" y="395"/>
      <point x="446" y="457" type="curve" smooth="yes"/>
      <point x="446" y="559"/>
      <point x="352" y="608"/>
      <point x="260" y="608" type="curve" smooth="yes"/>
      <point x="168" y="608"/>
      <point x="74" y="560"/>
      <point x="74" y="457" type="curve" smooth="yes"/>
      <point x="74" y="395"/>
      <point x="108" y="346"/>
      <point x="167" y="325" type="curve"/>
      <point x="96" y="301"/>
      <point x="55" y="243"/>
      <point x="55" y="170" type="curve" smooth="yes"/>
      <point x="55" y="54"/>
      <point x="157" y="-5"/>
      <point x="260" y="-5" type="curve" smooth="yes"/>
      <point x="365" y="-5"/>
      <point x="465" y="54"/>
      <point x="465" y="169" type="curve" smooth="yes"/>
      <point x="465" y="243"/>
      <point x="424" y="301"/>
    </contour>
    <contour>
      <point x="102" y="453" type="curve" smooth="yes"/>
      <point x="102" y="542"/>
      <point x="184" y="580"/>
      <point x="260" y="580" type="curve" smooth="yes"/>
      <point x="336" y="580"/>
      <point x="418" y="542"/>
      <point x="418" y="454" type="curve" smooth="yes"/>
      <point x="418" y="368"/>
      <point x="341" y="338"/>
      <point x="260" y="338" type="curve" smooth="yes"/>
      <point x="180" y="338"/>
      <point x="102" y="366"/>
    </contour>
    <contour>
      <point x="260" y="23" type="curve" smooth="yes"/>
      <point x="175" y="23"/>
      <point x="83" y="68"/>
      <point x="83" y="168" type="curve" smooth="yes"/>
      <point x="83" y="211"/>
      <point x="100" y="310"/>
      <point x="260" y="310" type="curve" smooth="yes"/>
      <point x="420" y="310"/>
      <point x="437" y="211"/>
      <point x="437" y="168" type="curve" smooth="yes"/>
      <point x="437" y="68"/>
      <point x="345" y="23"/>
    </contour>
  </outline>
</glyph>
<glyph name="nine" format="2">
  <advance width="468"/>
  <unicode hex="0039"/>
  <outline>
    <contour>
      <point x="234" y="229" type="curve" smooth="yes"/>
      <point x="260" y="229"/>
      <point x="286" y="234"/>
      <point x="309" y="244" type="curve"/>
      <point x="137" y="0" type="line"/>
      <point x="171" y="0" type="line"/>
      <point x="387" y="308" type="line" smooth="yes"/>
      <point x="411" y="340"/>
      <point x="423" y="378"/>
      <point x="423" y="418" type="curve" smooth="yes"/>
      <point x="423" y="522"/>
      <point x="338" y="607"/>
      <point x="234" y="607" type="curve" smooth="yes"/>
      <point x="130" y="607"/>
      <point x="45" y="522"/>
      <point x="45" y="418" type="curve" smooth="yes"/>
      <point x="45" y="314"/>
      <point x="130" y="229"/>
    </contour>
    <contour>
      <point x="234" y="579" type="curve" smooth="yes"/>
      <point x="323" y="579"/>
      <point x="395" y="507"/>
      <point x="395" y="417" type="curve" smooth="yes"/>
      <point x="395" y="386"/>
      <point x="387" y="355"/>
      <point x="369" y="331" type="curve" smooth="yes"/>
      <point x="362" y="321" type="line" smooth="yes"/>
      <point x="334" y="281"/>
      <point x="286" y="257"/>
      <point x="234" y="257" type="curve" smooth="yes"/>
      <point x="145" y="257"/>
      <point x="73" y="329"/>
      <point x="73" y="418" type="curve" smooth="yes"/>
      <point x="73" y="507"/>
      <point x="145" y="579"/>
    </contour>
  </outline>
</glyph>
<glyph name="colon" format="2">
  <advance width="145"/>
  <unicode hex="003A"/>
  <outline>
    <contour>
      <point x="45" y="80" type="line"/>
      <point x="100" y="80" type="line"/>
      <point x="100" y="150" type="line"/>
      <point x="45" y="150" type="line"/>
    </contour>
    <contour>
      <point x="45" y="443" type="line"/>
      <point x="45" y="373" type="line"/>
      <point x="100" y="373" type="line"/>
      <point x="100" y="443" type="line"/>
    </contour>
  </outline>
</glyph>
<glyph name="semicolon" format="2">
  <advance width="188"/>
  <unicode hex="003B"/>
  <outline>
    <contour>
      <point x="87.5024" y="442.73" type="line"/>
      <point x="87.5024" y="372.695" type="line"/>
      <point x="142.502" y="372.695" type="line"/>
      <point x="142.502" y="442.73" type="line"/>
    </contour>
    <contour>
      <point x="98" y="149" type="line"/>
      <point x="95" y="84"/>
      <point x="73" y="33"/>
      <point x="45" y="-15" type="curve"/>
      <point x="79" y="-15" type="line"/>
      <point x="106" y="25"/>
      <point x="135" y="77"/>
      <point x="143" y="149" type="curve"/>
    </contour>
  </outline>
</glyph>
<glyph name="less" format="2">
  <advance width="309"/>
  <unicode hex="003C"/>
  <outline>
    <contour>
      <point x="284" y="162" type="line"/>
      <point x="51" y="308" type="line"/>
      <point x="284" y="454" type="line"/>
      <point x="284" y="487" type="line"/>
      <point x="25" y="325" type="line"/>
      <point x="25" y="291" type="line"/>
      <point x="284" y="129" type="line"/>
    </contour>
  </outline>
</glyph>
<glyph name="equal" format="2">
  <advance width="450"/>
  <unicode hex="003D"/>
  <outline>
    <contour>
      <point x="405" y="184" type="line"/>
      <point x="45" y="184" type="line"/>
      <point x="45" y="212" type="line"/>
      <point x="405" y="212" type="line"/>
    </contour>
    <contour>
      <point x="405" y="295" type="line"/>
      <point x="45" y="295" type="line"/>
      <point x="45" y="323" type="line"/>
      <point x="405" y="323" type="line"/>
    </contour>
  </outline>
</glyph>
<glyph name="greater" format="2">
  <advance width="329"/>
  <unicode hex="003E"/>
  <outline>
    <contour>
      <point x="45" y="162" type="line"/>
      <point x="278" y="308" type="line"/>
      <point x="45" y="454" type="line"/>
      <point x="45" y="487" type="line"/>
      <point x="304" y="325" type="line"/>
      <point x="304" y="291" type="line"/>
      <point x="45" y="129" type="line"/>
    </contour>
  </outline>
</glyph>
<glyph name="question" format="2">
  <advance width="438"/>
  <unicode hex="003F"/>
  <outline>
    <contour>
      <point x="190" y="0" type="line"/>
      <point x="245" y="0" type="line"/>
      <point x="245" y="70" type="line"/>
      <point x="190" y="70" type="line"/>
    </contour>
    <contour>
      <point x="224" y="633" type="curve" smooth="yes"/>
      <point x="114" y="633"/>
      <point x="45" y="545"/>
      <point x="45" y="438" type="curve"/>
      <point x="73" y="438" type="line"/>
      <point x="73" y="536"/>
      <point x="135" y="605"/>
      <point x="225" y="605" type="curve" smooth="yes"/>
      <point x="295" y="605"/>
      <point x="365" y="564"/>
      <point x="365" y="491" type="curve" smooth="yes"/>
      <point x="365" y="443"/>
      <point x="336" y="415"/>
      <point x="302" y="382" type="curve" smooth="yes"/>
      <point x="241" y="325"/>
      <point x="203" y="276"/>
      <point x="203" y="188" type="curve"/>
      <point x="231" y="188" type="line"/>
      <point x="231" y="276"/>
      <point x="277" y="320"/>
      <point x="321" y="362" type="curve" smooth="yes"/>
      <point x="358" y="398"/>
      <point x="393" y="431"/>
      <point x="393" y="490" type="curve" smooth="yes"/>
      <point x="393" y="579"/>
      <point x="310" y="633"/>
    </contour>
  </outline>
</glyph>
<glyph name="at" format="2">
  <advance width="450"/>
  <unicode hex="0040"/>
  <outline>
    <contour>
      <point x="225" y="439" type="curve" smooth="yes"/>
      <point x="126" y="439"/>
      <point x="45" y="359"/>
      <point x="45" y="260" type="curve" smooth="yes"/>
      <point x="45" y="162"/>
      <point x="124" y="79"/>
      <point x="223" y="79" type="curve"/>
      <point x="225" y="79" type="line"/>
      <point x="244" y="79"/>
      <point x="264" y="82"/>
      <point x="282" y="88" type="curve"/>
      <point x="273" y="115" type="line"/>
      <point x="257" y="109"/>
      <point x="240" y="107"/>
      <point x="224" y="107" type="curve" smooth="yes"/>
      <point x="140" y="107"/>
      <point x="73" y="177"/>
      <point x="73" y="260" type="curve" smooth="yes"/>
      <point x="73" y="343"/>
      <point x="142" y="411"/>
      <point x="225" y="411" type="curve" smooth="yes"/>
      <point x="307" y="411"/>
      <point x="377" y="343"/>
      <point x="377" y="261" type="curve" smooth="yes"/>
      <point x="377" y="224"/>
      <point x="362" y="178"/>
      <point x="345" y="178" type="curve" smooth="yes"/>
      <point x="339" y="178"/>
      <point x="334" y="183"/>
      <point x="334" y="189" type="curve" smooth="yes"/>
      <point x="334" y="259" type="line" smooth="yes"/>
      <point x="334" y="319"/>
      <point x="285" y="368"/>
      <point x="225" y="368" type="curve" smooth="yes"/>
      <point x="165" y="368"/>
      <point x="116" y="319"/>
      <point x="116" y="259" type="curve" smooth="yes"/>
      <point x="116" y="199"/>
      <point x="165" y="150"/>
      <point x="225" y="150" type="curve" smooth="yes"/>
      <point x="257" y="150"/>
      <point x="286" y="164"/>
      <point x="306" y="186" type="curve"/>
      <point x="307" y="166"/>
      <point x="324" y="150"/>
      <point x="345" y="150" type="curve" smooth="yes"/>
      <point x="383" y="150"/>
      <point x="405" y="213"/>
      <point x="405" y="262" type="curve" smooth="yes"/>
      <point x="405" y="359"/>
      <point x="322" y="439"/>
    </contour>
    <contour>
      <point x="225" y="178" type="curve" smooth="yes"/>
      <point x="180" y="178"/>
      <point x="144" y="214"/>
      <point x="144" y="259" type="curve" smooth="yes"/>
      <point x="144" y="304"/>
      <point x="180" y="340"/>
      <point x="225" y="340" type="curve" smooth="yes"/>
      <point x="270" y="340"/>
      <point x="306" y="304"/>
      <point x="306" y="259" type="curve" smooth="yes"/>
      <point x="306" y="214"/>
      <point x="270" y="178"/>
    </contour>
  </outline>
</glyph>
<glyph name="A" format="2">
  <advance width="617"/>
  <unicode hex="0041"/>
  <outline>
    <contour>
      <point x="294" y="683" type="line"/>
      <point x="25" y="0" type="line"/>
      <point x="55" y="0" type="line"/>
      <point x="149" y="239" type="line"/>
      <point x="468" y="239" type="line"/>
      <point x="562" y="0" type="line"/>
      <point x="592" y="0" type="line"/>
      <point x="324" y="683" type="line"/>
    </contour>
    <contour>
      <point x="160" y="267" type="line"/>
      <point x="309" y="645" type="line"/>
      <point x="457" y="267" type="line"/>
    </contour>
  </outline>
</glyph>
<glyph name="B" format="2">
  <advance width="633"/>
  <unicode hex="0042"/>
  <outline>
    <contour>
      <point x="370" y="0" type="curve" smooth="yes"/>
      <point x="85" y="0" type="line"/>
      <point x="85" y="683" type="line"/>
      <point x="370" y="683" type="line" smooth="yes"/>
      <point x="468" y="683"/>
      <point x="556" y="625"/>
      <point x="556" y="521" type="curve" smooth="yes"/>
      <point x="556" y="451"/>
      <point x="516" y="392"/>
      <point x="454" y="366" type="curve"/>
      <point x="532" y="341"/>
      <point x="588" y="276"/>
      <point x="588" y="193" type="curve" smooth="yes"/>
      <point x="588" y="96"/>
      <point x="513" y="0"/>
    </contour>
    <contour>
      <point x="113" y="28" type="line"/>
      <point x="370" y="28" type="line" smooth="yes"/>
      <point x="495" y="28"/>
      <point x="560" y="110"/>
      <point x="560" y="191" type="curve" smooth="yes"/>
      <point x="560" y="269"/>
      <point x="503" y="350"/>
      <point x="374" y="350" type="curve"/>
      <point x="370" y="350" type="line"/>
      <point x="113" y="350" type="line"/>
    </contour>
    <contour>
      <point x="113" y="378" type="line"/>
      <point x="370" y="378" type="line"/>
      <point x="374" y="378" type="line"/>
      <point x="475" y="378"/>
      <point x="528" y="450"/>
      <point x="528" y="519" type="curve" smooth="yes"/>
      <point x="528" y="587"/>
      <point x="479" y="655"/>
      <point x="370" y="655" type="curve" smooth="yes"/>
      <point x="113" y="655" type="line"/>
    </contour>
  </outline>
</glyph>
<glyph name="C" format="2">
  <advance width="668"/>
  <unicode hex="0043"/>
  <outline>
    <contour>
      <point x="584" y="234" type="line"/>
      <point x="552" y="103"/>
      <point x="461" y="24"/>
      <point x="335" y="24" type="curve" smooth="yes"/>
      <point x="190" y="24"/>
      <point x="73" y="167"/>
      <point x="73" y="342" type="curve" smooth="yes"/>
      <point x="73" y="518"/>
      <point x="190" y="661"/>
      <point x="335" y="661" type="curve" smooth="yes"/>
      <point x="461" y="661"/>
      <point x="552" y="581"/>
      <point x="584" y="451" type="curve"/>
      <point x="613" y="451" type="line"/>
      <point x="583" y="588"/>
      <point x="485" y="689"/>
      <point x="343" y="689" type="curve" smooth="yes"/>
      <point x="156" y="689"/>
      <point x="45" y="511"/>
      <point x="45" y="341" type="curve" smooth="yes"/>
      <point x="45" y="171"/>
      <point x="155" y="-4"/>
      <point x="342" y="-4" type="curve" smooth="yes"/>
      <point x="482" y="-4"/>
      <point x="582" y="94"/>
      <point x="613" y="234" type="curve"/>
    </contour>
  </outline>
</glyph>
<glyph name="D" format="2">
  <advance width="658"/>
  <unicode hex="0044"/>
  <outline>
    <contour>
      <point x="281" y="0" type="curve" smooth="yes"/>
      <point x="85" y="0" type="line"/>
      <point x="85" y="683" type="line"/>
      <point x="281" y="683" type="line" smooth="yes"/>
      <point x="481" y="683"/>
      <point x="613" y="535"/>
      <point x="613" y="342" type="curve" smooth="yes"/>
      <point x="613" y="149"/>
      <point x="482" y="0"/>
    </contour>
    <contour>
      <point x="113" y="28" type="line"/>
      <point x="281" y="28" type="line" smooth="yes"/>
      <point x="463" y="28"/>
      <point x="585" y="161"/>
      <point x="585" y="337" type="curve" smooth="yes"/>
      <point x="585" y="492"/>
      <point x="490" y="655"/>
      <point x="281" y="655" type="curve" smooth="yes"/>
      <point x="113" y="655" type="line"/>
    </contour>
  </outline>
  <guideline angle="0" x="0" y="840"/>
</glyph>
<glyph name="E" format="2">
  <advance width="598"/>
  <unicode hex="0045"/>
  <outline>
    <contour>
      <point x="114" y="28" type="line"/>
      <point x="114" y="345" type="line"/>
      <point x="495" y="345" type="line"/>
      <point x="495" y="373" type="line"/>
      <point x="114" y="373" type="line"/>
      <point x="114" y="655" type="line"/>
      <point x="535" y="655" type="line"/>
      <point x="535" y="683" type="line"/>
      <point x="85" y="683" type="line"/>
      <point x="85" y="0" type="line"/>
      <point x="543" y="0" type="line"/>
      <point x="543" y="28" type="line"/>
    </contour>
  </outline>
</glyph>
<glyph name="F" format="2">
  <advance width="560"/>
  <unicode hex="0046"/>
  <outline>
    <contour>
      <point x="114" y="345" type="line"/>
      <point x="495" y="345" type="line"/>
      <point x="495" y="373" type="line"/>
      <point x="114" y="373" type="line"/>
      <point x="114" y="655" type="line"/>
      <point x="535" y="655" type="line"/>
      <point x="535" y="683" type="line"/>
      <point x="85" y="683" type="line"/>
      <point x="85" y="0" type="line"/>
      <point x="114" y="0" type="line"/>
    </contour>
  </outline>
</glyph>
<glyph name="G" format="2">
  <advance width="699"/>
  <unicode hex="0047"/>
  <outline>
    <contour>
      <point x="350" y="305" type="line"/>
      <point x="595" y="305" type="line"/>
      <point x="583" y="131"/>
      <point x="484" y="24"/>
      <point x="335" y="24" type="curve" smooth="yes"/>
      <point x="190" y="24"/>
      <point x="73" y="167"/>
      <point x="73" y="342" type="curve" smooth="yes"/>
      <point x="73" y="518"/>
      <point x="190" y="661"/>
      <point x="335" y="661" type="curve" smooth="yes"/>
      <point x="451" y="661"/>
      <point x="538" y="596"/>
      <point x="576" y="482" type="curve"/>
      <point x="605" y="482" type="line"/>
      <point x="568" y="604"/>
      <point x="471" y="689"/>
      <point x="342" y="689" type="curve" smooth="yes"/>
      <point x="155" y="689"/>
      <point x="45" y="511"/>
      <point x="45" y="341" type="curve" smooth="yes"/>
      <point x="45" y="170"/>
      <point x="156" y="-4"/>
      <point x="345" y="-4" type="curve" smooth="yes"/>
      <point x="520" y="-4"/>
      <point x="617" y="145"/>
      <point x="624" y="318" type="curve" smooth="yes"/>
      <point x="624" y="333" type="line"/>
      <point x="350" y="333" type="line"/>
    </contour>
  </outline>
</glyph>
<glyph name="H" format="2">
  <advance width="673"/>
  <unicode hex="0048"/>
  <outline>
    <contour>
      <point x="560" y="683" type="line"/>
      <point x="560" y="376" type="line"/>
      <point x="113" y="376" type="line"/>
      <point x="113" y="683" type="line"/>
      <point x="85" y="683" type="line"/>
      <point x="85" y="0" type="line"/>
      <point x="113" y="0" type="line"/>
      <point x="113" y="348" type="line"/>
      <point x="560" y="348" type="line"/>
      <point x="560" y="0" type="line"/>
      <point x="588" y="0" type="line"/>
      <point x="588" y="683" type="line"/>
    </contour>
  </outline>
</glyph>
<glyph name="I" format="2">
  <advance width="201"/>
  <unicode hex="0049"/>
  <outline>
    <contour>
      <point x="116" y="0" type="line"/>
      <point x="85" y="0" type="line"/>
      <point x="85" y="684" type="line"/>
      <point x="116" y="684" type="line"/>
    </contour>
  </outline>
</glyph>
<glyph name="J" format="2">
  <advance width="511"/>
  <unicode hex="004A"/>
  <outline>
    <contour>
      <point x="240" y="-4" type="curve" smooth="yes"/>
      <point x="138" y="-4"/>
      <point x="55" y="79"/>
      <point x="55" y="181" type="curve"/>
      <point x="55" y="212" type="line"/>
      <point x="83" y="212" type="line"/>
      <point x="83" y="181" type="line"/>
      <point x="83" y="95"/>
      <point x="154" y="24"/>
      <point x="240" y="24" type="curve" smooth="yes"/>
      <point x="327" y="24"/>
      <point x="398" y="95"/>
      <point x="398" y="181" type="curve"/>
      <point x="398" y="684" type="line"/>
      <point x="426" y="684" type="line"/>
      <point x="426" y="181" type="line"/>
      <point x="426" y="79"/>
      <point x="342" y="-4"/>
    </contour>
  </outline>
  <guideline angle="0" x="0" y="684"/>
</glyph>
<glyph name="K" format="2">
  <advance width="644"/>
  <unicode hex="004B"/>
  <outline>
    <contour>
      <point x="619" y="0" type="line"/>
      <point x="286" y="402" type="line"/>
      <point x="595" y="683" type="line"/>
      <point x="553" y="683" type="line"/>
      <point x="113" y="282" type="line"/>
      <point x="113" y="683" type="line"/>
      <point x="85" y="683" type="line"/>
      <point x="85" y="0" type="line"/>
      <point x="113" y="0" type="line"/>
      <point x="113" y="244" type="line"/>
      <point x="265" y="383" type="line"/>
      <point x="582" y="0" type="line"/>
    </contour>
  </outline>
</glyph>
<glyph name="L" format="2">
  <advance width="534"/>
  <unicode hex="004C"/>
  <outline>
    <contour>
      <point x="509" y="0" type="line"/>
      <point x="85" y="0" type="line"/>
      <point x="85" y="683" type="line"/>
      <point x="113" y="683" type="line"/>
      <point x="113" y="28" type="line"/>
      <point x="509" y="28" type="line"/>
    </contour>
  </outline>
</glyph>
<glyph name="M" format="2">
  <advance width="815"/>
  <unicode hex="004D"/>
  <outline>
    <contour>
      <point x="701" y="683" type="line"/>
      <point x="403" y="34" type="line"/>
      <point x="104" y="683" type="line"/>
      <point x="75" y="683" type="line"/>
      <point x="75" y="0" type="line"/>
      <point x="103" y="0" type="line"/>
      <point x="103" y="619" type="line"/>
      <point x="387" y="0" type="line"/>
      <point x="418" y="0" type="line"/>
      <point x="702" y="619" type="line"/>
      <point x="702" y="0" type="line"/>
      <point x="730" y="0" type="line"/>
      <point x="730" y="683" type="line"/>
    </contour>
  </outline>
</glyph>
<glyph name="N" format="2">
  <advance width="662"/>
  <unicode hex="004E"/>
  <outline>
    <contour>
      <point x="577" y="0" type="line"/>
      <point x="577" y="683" type="line"/>
      <point x="549" y="683" type="line"/>
      <point x="549" y="46" type="line"/>
      <point x="116" y="683" type="line"/>
      <point x="85" y="683" type="line"/>
      <point x="85" y="0" type="line"/>
      <point x="113" y="0" type="line"/>
      <point x="113" y="637" type="line"/>
      <point x="546" y="0" type="line"/>
    </contour>
  </outline>
</glyph>
<glyph name="O" format="2">
  <advance width="710"/>
  <unicode hex="004F"/>
  <outline>
    <contour>
      <point x="355" y="-5" type="curve" smooth="yes"/>
      <point x="171" y="-5"/>
      <point x="45" y="161"/>
      <point x="45" y="339" type="curve" smooth="yes"/>
      <point x="45" y="516"/>
      <point x="169" y="688"/>
      <point x="354" y="688" type="curve" smooth="yes"/>
      <point x="539" y="688"/>
      <point x="665" y="516"/>
      <point x="665" y="339" type="curve" smooth="yes"/>
      <point x="665" y="164"/>
      <point x="541" y="-5"/>
    </contour>
    <contour>
      <point x="355" y="660" type="curve" smooth="yes"/>
      <point x="199" y="660"/>
      <point x="73" y="516"/>
      <point x="73" y="341" type="curve" smooth="yes"/>
      <point x="73" y="165"/>
      <point x="199" y="23"/>
      <point x="355" y="23" type="curve" smooth="yes"/>
      <point x="510" y="23"/>
      <point x="637" y="165"/>
      <point x="637" y="341" type="curve" smooth="yes"/>
      <point x="637" y="516"/>
      <point x="510" y="660"/>
    </contour>
  </outline>
</glyph>
<glyph name="P" format="2">
  <advance width="601"/>
  <unicode hex="0050"/>
  <outline>
    <contour>
      <point x="113" y="0" type="line"/>
      <point x="85" y="0" type="line"/>
      <point x="85" y="683" type="line"/>
      <point x="370" y="683" type="line" smooth="yes"/>
      <point x="479" y="683"/>
      <point x="556" y="608"/>
      <point x="556" y="499" type="curve" smooth="yes"/>
      <point x="556" y="391"/>
      <point x="479" y="309"/>
      <point x="370" y="309" type="curve" smooth="yes"/>
      <point x="113" y="309" type="line"/>
    </contour>
    <contour>
      <point x="113" y="337" type="line"/>
      <point x="370" y="337" type="line" smooth="yes"/>
      <point x="473" y="337"/>
      <point x="528" y="418"/>
      <point x="528" y="499" type="curve" smooth="yes"/>
      <point x="528" y="577"/>
      <point x="479" y="655"/>
      <point x="370" y="655" type="curve" smooth="yes"/>
      <point x="113" y="655" type="line"/>
    </contour>
  </outline>
</glyph>
<glyph name="Q" format="2">
  <advance width="710"/>
  <unicode hex="0051"/>
  <outline>
    <contour>
      <point x="575" y="96" type="line" smooth="yes"/>
      <point x="633" y="160"/>
      <point x="665" y="247"/>
      <point x="665" y="338" type="curve" smooth="yes"/>
      <point x="665" y="516"/>
      <point x="540" y="688"/>
      <point x="356" y="688" type="curve" smooth="yes"/>
      <point x="171" y="688"/>
      <point x="45" y="516"/>
      <point x="45" y="339" type="curve" smooth="yes"/>
      <point x="45" y="164"/>
      <point x="169" y="-5"/>
      <point x="354" y="-5" type="curve" smooth="yes"/>
      <point x="427" y="-5"/>
      <point x="495" y="22"/>
      <point x="550" y="71" type="curve"/>
      <point x="642" y="2" type="line"/>
      <point x="659" y="24" type="line"/>
      <point x="570" y="91" type="line"/>
    </contour>
    <contour>
      <point x="355" y="23" type="curve" smooth="yes"/>
      <point x="199" y="23"/>
      <point x="73" y="165"/>
      <point x="73" y="341" type="curve" smooth="yes"/>
      <point x="73" y="516"/>
      <point x="199" y="660"/>
      <point x="355" y="660" type="curve" smooth="yes"/>
      <point x="510" y="660"/>
      <point x="637" y="516"/>
      <point x="637" y="340" type="curve" smooth="yes"/>
      <point x="637" y="248"/>
      <point x="602" y="166"/>
      <point x="547" y="108" type="curve"/>
      <point x="429" y="198" type="line"/>
      <point x="412" y="175" type="line"/>
      <point x="527" y="89" type="line"/>
      <point x="479" y="48"/>
      <point x="420" y="23"/>
    </contour>
  </outline>
</glyph>
<glyph name="R" format="2">
  <advance width="621"/>
  <unicode hex="0052"/>
  <outline>
    <contour>
      <point x="113" y="309" type="line"/>
      <point x="383" y="309" type="line" smooth="yes"/>
      <point x="395" y="309"/>
      <point x="407" y="310"/>
      <point x="419" y="312" type="curve"/>
      <point x="566" y="0" type="line"/>
      <point x="596" y="0" type="line"/>
      <point x="447" y="319" type="line"/>
      <point x="525" y="344"/>
      <point x="569" y="419"/>
      <point x="569" y="500" type="curve" smooth="yes"/>
      <point x="569" y="608"/>
      <point x="492" y="683"/>
      <point x="383" y="683" type="curve" smooth="yes"/>
      <point x="85" y="683" type="line"/>
      <point x="85" y="0" type="line"/>
      <point x="113" y="0" type="line"/>
    </contour>
    <contour>
      <point x="113" y="655" type="line"/>
      <point x="383" y="655" type="line" smooth="yes"/>
      <point x="492" y="655"/>
      <point x="541" y="577"/>
      <point x="541" y="499" type="curve" smooth="yes"/>
      <point x="541" y="418"/>
      <point x="487" y="337"/>
      <point x="383" y="337" type="curve" smooth="yes"/>
      <point x="113" y="337" type="line"/>
    </contour>
  </outline>
</glyph>
<glyph name="S" format="2">
  <advance width="581"/>
  <unicode hex="0053"/>
  <outline>
    <contour>
      <point x="304" y="-5" type="curve" smooth="yes"/>
      <point x="173" y="-5"/>
      <point x="45" y="71"/>
      <point x="45" y="213" type="curve" smooth="yes"/>
      <point x="45" y="220"/>
      <point x="45" y="227"/>
      <point x="46" y="234" type="curve"/>
      <point x="74" y="231" type="line"/>
      <point x="73" y="225"/>
      <point x="73" y="219"/>
      <point x="73" y="213" type="curve" smooth="yes"/>
      <point x="73" y="88"/>
      <point x="189" y="23"/>
      <point x="304" y="23" type="curve" smooth="yes"/>
      <point x="407" y="23"/>
      <point x="508" y="74"/>
      <point x="508" y="183" type="curve" smooth="yes"/>
      <point x="508" y="293"/>
      <point x="406" y="319"/>
      <point x="298" y="347" type="curve" smooth="yes"/>
      <point x="243" y="361"/>
      <point x="187" y="376"/>
      <point x="144" y="401" type="curve" smooth="yes"/>
      <point x="94" y="432"/>
      <point x="69" y="473"/>
      <point x="69" y="527" type="curve" smooth="yes"/>
      <point x="69" y="642"/>
      <point x="183" y="688"/>
      <point x="287" y="688" type="curve" smooth="yes"/>
      <point x="417" y="688"/>
      <point x="517" y="617"/>
      <point x="517" y="474" type="curve"/>
      <point x="489" y="474" type="line"/>
      <point x="489" y="642"/>
      <point x="344" y="660"/>
      <point x="282" y="660" type="curve" smooth="yes"/>
      <point x="173" y="660"/>
      <point x="97" y="606"/>
      <point x="97" y="523" type="curve" smooth="yes"/>
      <point x="97" y="427"/>
      <point x="198" y="401"/>
      <point x="305" y="374" type="curve" smooth="yes"/>
      <point x="360" y="360"/>
      <point x="417" y="345"/>
      <point x="460" y="319" type="curve" smooth="yes"/>
      <point x="511" y="288"/>
      <point x="536" y="245"/>
      <point x="536" y="185" type="curve" smooth="yes"/>
      <point x="536" y="56"/>
      <point x="422" y="-5"/>
    </contour>
  </outline>
</glyph>
<glyph name="T" format="2">
  <advance width="570"/>
  <unicode hex="0054"/>
  <outline>
    <contour>
      <point x="545" y="683" type="line"/>
      <point x="25" y="683" type="line"/>
      <point x="25" y="655" type="line"/>
      <point x="273" y="655" type="line"/>
      <point x="273" y="0" type="line"/>
      <point x="301" y="0" type="line"/>
      <point x="301" y="655" type="line"/>
      <point x="545" y="655" type="line"/>
    </contour>
  </outline>
</glyph>
<glyph name="U" format="2">
  <advance width="655"/>
  <unicode hex="0055"/>
  <outline>
    <contour>
      <point x="333" y="-5" type="curve" smooth="yes"/>
      <point x="196" y="-5"/>
      <point x="85" y="106"/>
      <point x="85" y="243" type="curve" smooth="yes"/>
      <point x="85" y="683" type="line"/>
      <point x="113" y="683" type="line"/>
      <point x="113" y="243" type="line" smooth="yes"/>
      <point x="113" y="121"/>
      <point x="211" y="23"/>
      <point x="333" y="23" type="curve" smooth="yes"/>
      <point x="454" y="23"/>
      <point x="552" y="121"/>
      <point x="552" y="243" type="curve" smooth="yes"/>
      <point x="552" y="683" type="line"/>
      <point x="580" y="683" type="line"/>
      <point x="580" y="243" type="line" smooth="yes"/>
      <point x="580" y="106"/>
      <point x="469" y="-5"/>
    </contour>
  </outline>
</glyph>
<glyph name="V" format="2">
  <advance width="600"/>
  <unicode hex="0056"/>
  <outline>
    <contour>
      <point x="545" y="683" type="line"/>
      <point x="300" y="39" type="line"/>
      <point x="55" y="683" type="line"/>
      <point x="25" y="683" type="line"/>
      <point x="285" y="0" type="line"/>
      <point x="315" y="0" type="line"/>
      <point x="575" y="683" type="line"/>
    </contour>
  </outline>
</glyph>
<glyph name="W" format="2">
  <advance width="890"/>
  <unicode hex="0057"/>
  <outline>
    <contour>
      <point x="836" y="683" type="line"/>
      <point x="647" y="49" type="line"/>
      <point x="460" y="683" type="line"/>
      <point x="430" y="683" type="line"/>
      <point x="242" y="49" type="line"/>
      <point x="54" y="683" type="line"/>
      <point x="25" y="683" type="line"/>
      <point x="228" y="0" type="line"/>
      <point x="257" y="0" type="line"/>
      <point x="445" y="633" type="line"/>
      <point x="633" y="0" type="line"/>
      <point x="662" y="0" type="line"/>
      <point x="865" y="683" type="line"/>
    </contour>
  </outline>
</glyph>
<glyph name="X" format="2">
  <advance width="605"/>
  <unicode hex="0058"/>
  <outline>
    <contour>
      <point x="561" y="683" type="line"/>
      <point x="526" y="683" type="line"/>
      <point x="302" y="378" type="line"/>
      <point x="79" y="683" type="line"/>
      <point x="44" y="683" type="line"/>
      <point x="285" y="354" type="line"/>
      <point x="25" y="0" type="line"/>
      <point x="60" y="0" type="line"/>
      <point x="302" y="331" type="line"/>
      <point x="545" y="0" type="line"/>
      <point x="580" y="0" type="line"/>
      <point x="320" y="354" type="line"/>
    </contour>
  </outline>
</glyph>
<glyph name="Y" format="2">
  <advance width="586"/>
  <unicode hex="0059"/>
  <outline>
    <contour>
      <point x="528" y="683" type="line"/>
      <point x="293" y="289" type="line"/>
      <point x="58" y="683" type="line"/>
      <point x="25" y="683" type="line"/>
      <point x="279" y="258" type="line"/>
      <point x="279" y="0" type="line"/>
      <point x="307" y="0" type="line"/>
      <point x="307" y="258" type="line"/>
      <point x="561" y="683" type="line"/>
    </contour>
  </outline>
</glyph>
<glyph name="Z" format="2">
  <advance width="629"/>
  <unicode hex="005A"/>
  <outline>
    <contour>
      <point x="550" y="654" type="line"/>
      <point x="550" y="683" type="line"/>
      <point x="79" y="683" type="line"/>
      <point x="79" y="655" type="line"/>
      <point x="516" y="655" type="line"/>
      <point x="55" y="28" type="line"/>
      <point x="55" y="0" type="line"/>
      <point x="574" y="0" type="line"/>
      <point x="574" y="28" type="line"/>
      <point x="90" y="28" type="line"/>
    </contour>
  </outline>
</glyph>
<glyph name="bracketleft" format="2">
  <advance width="259"/>
  <unicode hex="005B"/>
  <outline>
    <contour>
      <point x="234" y="-169" type="line"/>
      <point x="85" y="-169" type="line"/>
      <point x="85" y="679" type="line"/>
      <point x="234" y="679" type="line"/>
      <point x="234" y="651" type="line"/>
      <point x="113" y="651" type="line"/>
      <point x="113" y="-141" type="line"/>
      <point x="234" y="-141" type="line"/>
    </contour>
  </outline>
</glyph>
<glyph name="backslash" format="2">
  <advance width="474"/>
  <unicode hex="005C"/>
  <outline>
    <contour>
      <point x="56" y="679" type="line"/>
      <point x="449" y="-169" type="line"/>
      <point x="419" y="-169" type="line"/>
      <point x="25" y="679" type="line"/>
    </contour>
  </outline>
</glyph>
<glyph name="bracketright" format="2">
  <advance width="259"/>
  <unicode hex="005D"/>
  <outline>
    <contour>
      <point x="25" y="-169" type="line"/>
      <point x="174" y="-169" type="line"/>
      <point x="174" y="679" type="line"/>
      <point x="25" y="679" type="line"/>
      <point x="25" y="651" type="line"/>
      <point x="146" y="651" type="line"/>
      <point x="146" y="-141" type="line"/>
      <point x="25" y="-141" type="line"/>
    </contour>
  </outline>
</glyph>
<glyph name="ltr94" format="2">
  <advance width="419"/>
  <unicode hex="005E"/>
  <outline>
    <contour>
      <point x="193" y="603" type="line"/>
      <point x="30" y="344" type="line"/>
      <point x="63" y="344" type="line"/>
      <point x="209" y="577" type="line"/>
      <point x="356" y="344" type="line"/>
      <point x="389" y="344" type="line"/>
      <point x="226" y="603" type="line"/>
    </contour>
  </outline>
</glyph>
<glyph name="ltr95" format="2">
  <advance width="420"/>
  <unicode hex="005F"/>
  <outline>
    <contour>
      <point x="390" y="0" type="line"/>
      <point x="30" y="0" type="line"/>
      <point x="30" y="28" type="line"/>
      <point x="390" y="28" type="line"/>
    </contour>
  </outline>
</glyph>
<glyph name="grave" format="2">
  <advance width="136"/>
  <unicode hex="0060"/>
  <outline>
    <contour>
      <point x="25" y="461" type="line"/>
      <point x="50" y="506"/>
      <point x="75" y="577"/>
      <point x="81" y="624" type="curve"/>
      <point x="111" y="624" type="line"/>
      <point x="107" y="573"/>
      <point x="83" y="506"/>
      <point x="59" y="461" type="curve"/>
    </contour>
  </outline>
</glyph>
<glyph name="a" format="2">
  <advance width="578"/>
  <unicode hex="0061"/>
  <outline>
    <contour>
      <point x="465" y="518" type="line"/>
      <point x="465" y="386" type="line"/>
      <point x="428" y="464"/>
      <point x="356" y="523"/>
      <point x="267" y="523" type="curve" smooth="yes"/>
      <point x="131" y="523"/>
      <point x="45" y="386"/>
      <point x="45" y="258" type="curve" smooth="yes"/>
      <point x="45" y="130"/>
      <point x="130" y="-5"/>
      <point x="267" y="-5" type="curve" smooth="yes"/>
      <point x="357" y="-5"/>
      <point x="428" y="53"/>
      <point x="465" y="129" type="curve"/>
      <point x="465" y="0" type="line"/>
      <point x="493" y="0" type="line"/>
      <point x="493" y="518" type="line"/>
    </contour>
    <contour>
      <point x="269" y="23" type="curve" smooth="yes"/>
      <point x="161" y="23"/>
      <point x="73" y="128"/>
      <point x="73" y="258" type="curve" smooth="yes"/>
      <point x="73" y="388"/>
      <point x="161" y="495"/>
      <point x="269" y="495" type="curve" smooth="yes"/>
      <point x="377" y="495"/>
      <point x="465" y="388"/>
      <point x="465" y="258" type="curve" smooth="yes"/>
      <point x="465" y="128"/>
      <point x="377" y="23"/>
    </contour>
  </outline>
</glyph>
<glyph name="b" format="2">
  <advance width="568"/>
  <unicode hex="0062"/>
  <outline>
    <contour>
      <point x="306" y="523" type="curve" smooth="yes"/>
      <point x="218" y="523"/>
      <point x="149" y="464"/>
      <point x="113" y="388" type="curve"/>
      <point x="113" y="683" type="line"/>
      <point x="85" y="683" type="line"/>
      <point x="85" y="0" type="line"/>
      <point x="113" y="0" type="line"/>
      <point x="113" y="128" type="line"/>
      <point x="149" y="52"/>
      <point x="218" y="-5"/>
      <point x="305" y="-5" type="curve" smooth="yes"/>
      <point x="440" y="-5"/>
      <point x="523" y="131"/>
      <point x="523" y="257" type="curve" smooth="yes"/>
      <point x="523" y="382"/>
      <point x="442" y="523"/>
    </contour>
    <contour>
      <point x="304" y="23" type="curve" smooth="yes"/>
      <point x="199" y="23"/>
      <point x="113" y="128"/>
      <point x="113" y="258" type="curve" smooth="yes"/>
      <point x="113" y="388"/>
      <point x="199" y="495"/>
      <point x="304" y="495" type="curve" smooth="yes"/>
      <point x="409" y="495"/>
      <point x="495" y="388"/>
      <point x="495" y="258" type="curve" smooth="yes"/>
      <point x="495" y="128"/>
      <point x="409" y="23"/>
    </contour>
  </outline>
</glyph>
<glyph name="c" format="2">
  <advance width="540"/>
  <unicode hex="0063"/>
  <outline>
    <contour>
      <point x="456" y="172" type="line"/>
      <point x="432" y="78"/>
      <point x="364" y="23"/>
      <point x="279" y="23" type="curve" smooth="yes"/>
      <point x="162" y="23"/>
      <point x="73" y="128"/>
      <point x="73" y="258" type="curve" smooth="yes"/>
      <point x="73" y="389"/>
      <point x="162" y="495"/>
      <point x="279" y="495" type="curve" smooth="yes"/>
      <point x="363" y="495"/>
      <point x="431" y="440"/>
      <point x="456" y="346" type="curve"/>
      <point x="485" y="346" type="line"/>
      <point x="460" y="449"/>
      <point x="384" y="523"/>
      <point x="277" y="523" type="curve" smooth="yes"/>
      <point x="134" y="523"/>
      <point x="45" y="390"/>
      <point x="45" y="257" type="curve" smooth="yes"/>
      <point x="45" y="124"/>
      <point x="134" y="-5"/>
      <point x="277" y="-5" type="curve" smooth="yes"/>
      <point x="385" y="-5"/>
      <point x="461" y="68"/>
      <point x="485" y="172" type="curve"/>
    </contour>
  </outline>
</glyph>
<glyph name="d" format="2">
  <advance width="568"/>
  <unicode hex="0064"/>
  <outline>
    <contour>
      <point x="455" y="683" type="line"/>
      <point x="455" y="388" type="line"/>
      <point x="419" y="464"/>
      <point x="350" y="523"/>
      <point x="262" y="523" type="curve" smooth="yes"/>
      <point x="128" y="523"/>
      <point x="45" y="384"/>
      <point x="45" y="258" type="curve" smooth="yes"/>
      <point x="45" y="132"/>
      <point x="126" y="-5"/>
      <point x="262" y="-5" type="curve" smooth="yes"/>
      <point x="350" y="-5"/>
      <point x="420" y="53"/>
      <point x="455" y="128" type="curve"/>
      <point x="455" y="0" type="line"/>
      <point x="483" y="0" type="line"/>
      <point x="483" y="683" type="line"/>
    </contour>
    <contour>
      <point x="264" y="23" type="curve" smooth="yes"/>
      <point x="159" y="23"/>
      <point x="73" y="128"/>
      <point x="73" y="258" type="curve" smooth="yes"/>
      <point x="73" y="388"/>
      <point x="159" y="495"/>
      <point x="264" y="495" type="curve" smooth="yes"/>
      <point x="369" y="495"/>
      <point x="455" y="388"/>
      <point x="455" y="258" type="curve" smooth="yes"/>
      <point x="455" y="128"/>
      <point x="369" y="23"/>
    </contour>
  </outline>
</glyph>
<glyph name="e" format="2">
  <advance width="538"/>
  <unicode hex="0065"/>
  <outline>
    <contour>
      <point x="453" y="186" type="line"/>
      <point x="432" y="82"/>
      <point x="364" y="23"/>
      <point x="275" y="23" type="curve" smooth="yes"/>
      <point x="161" y="23"/>
      <point x="73" y="121"/>
      <point x="73" y="249" type="curve"/>
      <point x="483" y="249" type="line"/>
      <point x="483" y="263" type="line" smooth="yes"/>
      <point x="483" y="389"/>
      <point x="403" y="523"/>
      <point x="266" y="523" type="curve" smooth="yes"/>
      <point x="126" y="523"/>
      <point x="45" y="384"/>
      <point x="45" y="253" type="curve" smooth="yes"/>
      <point x="45" y="110"/>
      <point x="143" y="-5"/>
      <point x="275" y="-5" type="curve" smooth="yes"/>
      <point x="387" y="-5"/>
      <point x="461" y="78"/>
      <point x="481" y="186" type="curve"/>
    </contour>
    <contour>
      <point x="267" y="495" type="curve" smooth="yes"/>
      <point x="368" y="495"/>
      <point x="447" y="404"/>
      <point x="454" y="277" type="curve"/>
      <point x="74" y="277" type="line"/>
      <point x="81" y="399"/>
      <point x="164" y="495"/>
    </contour>
  </outline>
</glyph>
<glyph name="f" format="2">
  <advance width="354"/>
  <unicode hex="0066"/>
  <outline>
    <contour>
      <point x="266" y="655" type="curve" smooth="yes"/>
      <point x="299" y="655" type="line"/>
      <point x="299" y="683" type="line"/>
      <point x="266" y="683" type="line" smooth="yes"/>
      <point x="205" y="683"/>
      <point x="156" y="634"/>
      <point x="156" y="573" type="curve" smooth="yes"/>
      <point x="156" y="518" type="line"/>
      <point x="55" y="518" type="line"/>
      <point x="55" y="490" type="line"/>
      <point x="156" y="490" type="line"/>
      <point x="156" y="0" type="line"/>
      <point x="184" y="0" type="line"/>
      <point x="184" y="490" type="line"/>
      <point x="285" y="490" type="line"/>
      <point x="285" y="518" type="line"/>
      <point x="184" y="518" type="line"/>
      <point x="184" y="573" type="line" smooth="yes"/>
      <point x="184" y="618"/>
      <point x="221" y="655"/>
    </contour>
  </outline>
</glyph>
<glyph name="g" format="2">
  <advance width="568"/>
  <unicode hex="0067"/>
  <outline>
    <contour>
      <point x="465" y="518" type="line"/>
      <point x="465" y="390" type="line"/>
      <point x="430" y="465"/>
      <point x="360" y="523"/>
      <point x="274" y="523" type="curve"/>
      <point x="138" y="523"/>
      <point x="55" y="387"/>
      <point x="55" y="261" type="curve" smooth="yes"/>
      <point x="55" y="136"/>
      <point x="136" y="-5"/>
      <point x="274" y="-5" type="curve"/>
      <point x="360" y="-5"/>
      <point x="430" y="55"/>
      <point x="465" y="130" type="curve"/>
      <point x="465" y="48" type="line"/>
      <point x="465" y="-68"/>
      <point x="396" y="-137"/>
      <point x="291" y="-137" type="curve" smooth="yes"/>
      <point x="236" y="-137"/>
      <point x="181" y="-118"/>
      <point x="157" y="-100" type="curve"/>
      <point x="140" y="-123" type="line"/>
      <point x="173" y="-146"/>
      <point x="235" y="-165"/>
      <point x="292" y="-165" type="curve" smooth="yes"/>
      <point x="417" y="-165"/>
      <point x="493" y="-76"/>
      <point x="493" y="48" type="curve"/>
      <point x="493" y="518" type="line"/>
    </contour>
    <contour>
      <point x="277" y="23" type="curve" smooth="yes"/>
      <point x="169" y="23"/>
      <point x="83" y="130"/>
      <point x="83" y="260" type="curve" smooth="yes"/>
      <point x="83" y="390"/>
      <point x="169" y="495"/>
      <point x="274" y="495" type="curve"/>
      <point x="379" y="495"/>
      <point x="465" y="390"/>
      <point x="465" y="260" type="curve"/>
      <point x="465" y="152"/>
      <point x="396" y="23"/>
    </contour>
  </outline>
  <guideline angle="0" x="0" y="540"/>
  <guideline angle="0" x="0" y="778"/>
</glyph>
<glyph name="h" format="2">
  <advance width="540"/>
  <unicode hex="0068"/>
  <outline>
    <contour>
      <point x="289" y="523" type="curve" smooth="yes"/>
      <point x="214" y="523"/>
      <point x="147" y="484"/>
      <point x="113" y="415" type="curve"/>
      <point x="113" y="683" type="line"/>
      <point x="85" y="683" type="line"/>
      <point x="85" y="0" type="line"/>
      <point x="113" y="0" type="line"/>
      <point x="113" y="277" type="line" smooth="yes"/>
      <point x="113" y="474"/>
      <point x="241" y="495"/>
      <point x="288" y="495" type="curve" smooth="yes"/>
      <point x="355" y="495"/>
      <point x="437" y="453"/>
      <point x="437" y="360" type="curve" smooth="yes"/>
      <point x="437" y="0" type="line"/>
      <point x="465" y="0" type="line"/>
      <point x="465" y="360" type="line" smooth="yes"/>
      <point x="465" y="457"/>
      <point x="384" y="523"/>
    </contour>
  </outline>
</glyph>
<glyph name="i" format="2">
  <advance width="198"/>
  <unicode hex="0069"/>
  <outline>
    <contour>
      <point x="85" y="0" type="line"/>
      <point x="113" y="0" type="line"/>
      <point x="113" y="518" type="line"/>
      <point x="85" y="518" type="line"/>
    </contour>
    <contour>
      <point x="85" y="683" type="line"/>
      <point x="85" y="583" type="line"/>
      <point x="113" y="583" type="line"/>
      <point x="113" y="683" type="line"/>
    </contour>
  </outline>
</glyph>
<glyph name="j" format="2">
  <advance width="268"/>
  <unicode hex="006A"/>
  <outline>
    <contour>
      <point x="155" y="683" type="line"/>
      <point x="155" y="583" type="line"/>
      <point x="183" y="583" type="line"/>
      <point x="183" y="683" type="line"/>
    </contour>
    <contour>
      <point x="155" y="-57" type="line" smooth="yes"/>
      <point x="155" y="-101"/>
      <point x="119" y="-137"/>
      <point x="75" y="-137" type="curve" smooth="yes"/>
      <point x="55" y="-137" type="line"/>
      <point x="55" y="-165" type="line"/>
      <point x="75" y="-165" type="line" smooth="yes"/>
      <point x="134" y="-165"/>
      <point x="183" y="-116"/>
      <point x="183" y="-57" type="curve" smooth="yes"/>
      <point x="183" y="518" type="line"/>
      <point x="155" y="518" type="line"/>
    </contour>
  </outline>
</glyph>
<glyph name="k" format="2">
  <advance width="553"/>
  <unicode hex="006B"/>
  <outline>
    <contour>
      <point x="485" y="0" type="line"/>
      <point x="252" y="308" type="line"/>
      <point x="498" y="518" type="line"/>
      <point x="455" y="518" type="line"/>
      <point x="113" y="227" type="line"/>
      <point x="113" y="683" type="line"/>
      <point x="85" y="683" type="line"/>
      <point x="85" y="0" type="line"/>
      <point x="113" y="0" type="line"/>
      <point x="113" y="190" type="line"/>
      <point x="230" y="290" type="line"/>
      <point x="450" y="0" type="line"/>
    </contour>
  </outline>
</glyph>
<glyph name="l" format="2">
  <advance width="198"/>
  <unicode hex="006C"/>
  <outline>
    <contour>
      <point x="113" y="0" type="line"/>
      <point x="85" y="0" type="line"/>
      <point x="85" y="683" type="line"/>
      <point x="113" y="683" type="line"/>
    </contour>
  </outline>
</glyph>
<glyph name="m" format="2">
  <advance width="833"/>
  <unicode hex="006D"/>
  <outline>
    <contour>
      <point x="588" y="523" type="curve" smooth="yes"/>
      <point x="510" y="523"/>
      <point x="448" y="473"/>
      <point x="420" y="401" type="curve"/>
      <point x="402" y="473"/>
      <point x="341" y="523"/>
      <point x="265" y="523" type="curve" smooth="yes"/>
      <point x="193" y="523"/>
      <point x="133" y="478"/>
      <point x="103" y="414" type="curve"/>
      <point x="103" y="518" type="line"/>
      <point x="75" y="518" type="line"/>
      <point x="75" y="0" type="line"/>
      <point x="103" y="0" type="line"/>
      <point x="103" y="265" type="line"/>
      <point x="103" y="370"/>
      <point x="142" y="495"/>
      <point x="268" y="495" type="curve" smooth="yes"/>
      <point x="324" y="495"/>
      <point x="398" y="451"/>
      <point x="398" y="352" type="curve" smooth="yes"/>
      <point x="398" y="0" type="line"/>
      <point x="426" y="0" type="line"/>
      <point x="426" y="265" type="line"/>
      <point x="426" y="370"/>
      <point x="465" y="495"/>
      <point x="590" y="495" type="curve" smooth="yes"/>
      <point x="647" y="495"/>
      <point x="720" y="451"/>
      <point x="720" y="352" type="curve" smooth="yes"/>
      <point x="720" y="0" type="line"/>
      <point x="748" y="0" type="line"/>
      <point x="748" y="352" type="line" smooth="yes"/>
      <point x="748" y="445"/>
      <point x="685" y="523"/>
    </contour>
  </outline>
</glyph>
<glyph name="n" format="2">
  <advance width="559"/>
  <unicode hex="006E"/>
  <outline>
    <contour>
      <point x="294" y="523" type="curve" smooth="yes"/>
      <point x="219" y="523"/>
      <point x="148" y="483"/>
      <point x="113" y="412" type="curve"/>
      <point x="113" y="518" type="line"/>
      <point x="85" y="518" type="line"/>
      <point x="85" y="0" type="line"/>
      <point x="113" y="0" type="line"/>
      <point x="113" y="271" type="line" smooth="yes"/>
      <point x="113" y="473"/>
      <point x="244" y="495"/>
      <point x="293" y="495" type="curve" smooth="yes"/>
      <point x="361" y="495"/>
      <point x="446" y="452"/>
      <point x="446" y="356" type="curve" smooth="yes"/>
      <point x="446" y="0" type="line"/>
      <point x="474" y="0" type="line"/>
      <point x="474" y="356" type="line" smooth="yes"/>
      <point x="474" y="455"/>
      <point x="392" y="523"/>
    </contour>
  </outline>
</glyph>
<glyph name="o" format="2">
  <advance width="538"/>
  <unicode hex="006F"/>
  <outline>
    <contour>
      <point x="269" y="-6" type="curve" smooth="yes"/>
      <point x="132" y="-6"/>
      <point x="45" y="126"/>
      <point x="45" y="256" type="curve" smooth="yes"/>
      <point x="45" y="385"/>
      <point x="130" y="522"/>
      <point x="268" y="522" type="curve" smooth="yes"/>
      <point x="406" y="522"/>
      <point x="493" y="385"/>
      <point x="493" y="256" type="curve" smooth="yes"/>
      <point x="493" y="129"/>
      <point x="408" y="-6"/>
    </contour>
    <contour>
      <point x="269" y="494" type="curve" smooth="yes"/>
      <point x="161" y="494"/>
      <point x="73" y="387"/>
      <point x="73" y="257" type="curve" smooth="yes"/>
      <point x="73" y="127"/>
      <point x="161" y="22"/>
      <point x="269" y="22" type="curve" smooth="yes"/>
      <point x="377" y="22"/>
      <point x="465" y="127"/>
      <point x="465" y="257" type="curve" smooth="yes"/>
      <point x="465" y="387"/>
      <point x="377" y="494"/>
    </contour>
  </outline>
</glyph>
<glyph name="p" format="2">
  <advance width="568"/>
  <unicode hex="0070"/>
  <outline>
    <contour>
      <point x="306" y="523" type="curve" smooth="yes"/>
      <point x="218" y="523"/>
      <point x="149" y="466"/>
      <point x="113" y="390" type="curve"/>
      <point x="113" y="518" type="line"/>
      <point x="85" y="518" type="line"/>
      <point x="85" y="-165" type="line"/>
      <point x="113" y="-165" type="line"/>
      <point x="113" y="130" type="line"/>
      <point x="148" y="54"/>
      <point x="218" y="-5"/>
      <point x="305" y="-5" type="curve" smooth="yes"/>
      <point x="440" y="-5"/>
      <point x="523" y="134"/>
      <point x="523" y="260" type="curve" smooth="yes"/>
      <point x="523" y="386"/>
      <point x="442" y="523"/>
    </contour>
    <contour>
      <point x="304" y="23" type="curve" smooth="yes"/>
      <point x="199" y="23"/>
      <point x="113" y="130"/>
      <point x="113" y="260" type="curve" smooth="yes"/>
      <point x="113" y="390"/>
      <point x="199" y="495"/>
      <point x="304" y="495" type="curve" smooth="yes"/>
      <point x="409" y="495"/>
      <point x="495" y="390"/>
      <point x="495" y="260" type="curve" smooth="yes"/>
      <point x="495" y="130"/>
      <point x="409" y="23"/>
    </contour>
  </outline>
</glyph>
<glyph name="q" format="2">
  <advance width="568"/>
  <unicode hex="0071"/>
  <outline>
    <contour>
      <point x="262" y="523" type="curve" smooth="yes"/>
      <point x="349" y="523"/>
      <point x="419" y="466"/>
      <point x="455" y="390" type="curve"/>
      <point x="455" y="518" type="line"/>
      <point x="483" y="518" type="line"/>
      <point x="483" y="-165" type="line"/>
      <point x="455" y="-165" type="line"/>
      <point x="455" y="130" type="line"/>
      <point x="419" y="54"/>
      <point x="350" y="-5"/>
      <point x="262" y="-5" type="curve" smooth="yes"/>
      <point x="128" y="-5"/>
      <point x="45" y="134"/>
      <point x="45" y="260" type="curve" smooth="yes"/>
      <point x="45" y="386"/>
      <point x="126" y="523"/>
    </contour>
    <contour>
      <point x="264" y="23" type="curve" smooth="yes"/>
      <point x="369" y="23"/>
      <point x="455" y="130"/>
      <point x="455" y="260" type="curve" smooth="yes"/>
      <point x="455" y="390"/>
      <point x="369" y="495"/>
      <point x="264" y="495" type="curve" smooth="yes"/>
      <point x="159" y="495"/>
      <point x="73" y="390"/>
      <point x="73" y="260" type="curve" smooth="yes"/>
      <point x="73" y="130"/>
      <point x="159" y="23"/>
    </contour>
  </outline>
</glyph>
<glyph name="r" format="2">
  <advance width="362"/>
  <unicode hex="0072"/>
  <outline>
    <contour>
      <point x="113" y="402" type="curve"/>
      <point x="113" y="518" type="line"/>
      <point x="85" y="518" type="line"/>
      <point x="85" y="0" type="line"/>
      <point x="113" y="0" type="line"/>
      <point x="113" y="260" type="line" smooth="yes"/>
      <point x="113" y="468"/>
      <point x="248" y="490"/>
      <point x="307" y="490" type="curve"/>
      <point x="307" y="518" type="line"/>
      <point x="222" y="518"/>
      <point x="150" y="479"/>
    </contour>
  </outline>
  <guideline angle="0" x="0" y="518"/>
</glyph>
<glyph name="s" format="2">
  <advance width="486"/>
  <unicode hex="0073"/>
  <outline>
    <contour>
      <point x="249" y="-6" type="curve" smooth="yes"/>
      <point x="145" y="-6"/>
      <point x="61" y="51"/>
      <point x="55" y="163" type="curve" smooth="yes"/>
      <point x="55" y="166" type="line" smooth="yes"/>
      <point x="55" y="168" type="line" smooth="yes"/>
      <point x="55" y="170" type="line" smooth="yes"/>
      <point x="55" y="171"/>
      <point x="55" y="173"/>
      <point x="55" y="175" type="curve"/>
      <point x="84" y="175" type="line"/>
      <point x="83" y="170"/>
      <point x="83" y="166"/>
      <point x="83" y="161" type="curve" smooth="yes"/>
      <point x="83" y="69"/>
      <point x="169" y="22"/>
      <point x="253" y="22" type="curve" smooth="yes"/>
      <point x="323" y="22"/>
      <point x="403" y="53"/>
      <point x="403" y="140" type="curve" smooth="yes"/>
      <point x="403" y="177"/>
      <point x="389" y="201"/>
      <point x="358" y="220" type="curve" smooth="yes"/>
      <point x="328" y="238"/>
      <point x="287" y="248"/>
      <point x="248" y="259" type="curve" smooth="yes"/>
      <point x="206" y="269"/>
      <point x="164" y="280"/>
      <point x="131" y="300" type="curve" smooth="yes"/>
      <point x="92" y="323"/>
      <point x="74" y="356"/>
      <point x="74" y="397" type="curve" smooth="yes"/>
      <point x="74" y="485"/>
      <point x="160" y="522"/>
      <point x="241" y="522" type="curve" smooth="yes"/>
      <point x="340" y="522"/>
      <point x="417" y="467"/>
      <point x="417" y="357" type="curve"/>
      <point x="389" y="357" type="line"/>
      <point x="389" y="481"/>
      <point x="282" y="494"/>
      <point x="237" y="494" type="curve" smooth="yes"/>
      <point x="157" y="494"/>
      <point x="102" y="455"/>
      <point x="102" y="396" type="curve" smooth="yes"/>
      <point x="102" y="366"/>
      <point x="116" y="342"/>
      <point x="146" y="324" type="curve" smooth="yes"/>
      <point x="175" y="306"/>
      <point x="215" y="296"/>
      <point x="255" y="286" type="curve" smooth="yes"/>
      <point x="296" y="275"/>
      <point x="339" y="264"/>
      <point x="372" y="244" type="curve" smooth="yes"/>
      <point x="412" y="220"/>
      <point x="431" y="187"/>
      <point x="431" y="141" type="curve" smooth="yes"/>
      <point x="431" y="41"/>
      <point x="344" y="-6"/>
    </contour>
  </outline>
</glyph>
<glyph name="t" format="2">
  <advance width="345"/>
  <unicode hex="0074"/>
  <outline>
    <contour>
      <point x="266" y="28" type="line" smooth="yes"/>
      <point x="220" y="28"/>
      <point x="182" y="66"/>
      <point x="182" y="112" type="curve" smooth="yes"/>
      <point x="182" y="490" type="line"/>
      <point x="285" y="490" type="line"/>
      <point x="285" y="518" type="line"/>
      <point x="182" y="518" type="line"/>
      <point x="182" y="683" type="line"/>
      <point x="154" y="683" type="line"/>
      <point x="154" y="518" type="line"/>
      <point x="55" y="518" type="line"/>
      <point x="55" y="490" type="line"/>
      <point x="154" y="490" type="line"/>
      <point x="154" y="112" type="line" smooth="yes"/>
      <point x="154" y="50"/>
      <point x="204" y="0"/>
      <point x="266" y="0" type="curve" smooth="yes"/>
      <point x="290" y="0" type="line"/>
      <point x="290" y="28" type="line"/>
    </contour>
  </outline>
</glyph>
<glyph name="u" format="2">
  <advance width="529"/>
  <unicode hex="0075"/>
  <outline>
    <contour>
      <point x="416" y="518" type="line"/>
      <point x="416" y="247" type="line" smooth="yes"/>
      <point x="416" y="45"/>
      <point x="285" y="23"/>
      <point x="236" y="23" type="curve" smooth="yes"/>
      <point x="168" y="23"/>
      <point x="83" y="66"/>
      <point x="83" y="162" type="curve"/>
      <point x="83" y="518" type="line"/>
      <point x="55" y="518" type="line"/>
      <point x="55" y="162" type="line"/>
      <point x="55" y="61"/>
      <point x="139" y="-5"/>
      <point x="235" y="-5" type="curve" smooth="yes"/>
      <point x="310" y="-5"/>
      <point x="381" y="35"/>
      <point x="416" y="106" type="curve"/>
      <point x="416" y="0" type="line"/>
      <point x="444" y="0" type="line"/>
      <point x="444" y="518" type="line"/>
    </contour>
  </outline>
</glyph>
<glyph name="v" format="2">
  <advance width="467"/>
  <unicode hex="0076"/>
  <outline>
    <contour>
      <point x="412" y="518" type="line"/>
      <point x="233" y="50" type="line"/>
      <point x="55" y="518" type="line"/>
      <point x="25" y="518" type="line"/>
      <point x="222" y="0" type="line"/>
      <point x="244" y="0" type="line"/>
      <point x="442" y="518" type="line"/>
    </contour>
  </outline>
</glyph>
<glyph name="w" format="2">
  <advance width="734"/>
  <unicode hex="0077"/>
  <outline>
    <contour>
      <point x="679" y="518" type="line"/>
      <point x="530" y="56" type="line"/>
      <point x="382" y="518" type="line"/>
      <point x="352" y="518" type="line"/>
      <point x="203" y="56" type="line"/>
      <point x="54" y="518" type="line"/>
      <point x="25" y="518" type="line"/>
      <point x="192" y="0" type="line"/>
      <point x="215" y="0" type="line"/>
      <point x="367" y="473" type="line"/>
      <point x="519" y="0" type="line"/>
      <point x="542" y="0" type="line"/>
      <point x="709" y="518" type="line"/>
    </contour>
  </outline>
</glyph>
<glyph name="x" format="2">
  <advance width="491"/>
  <unicode hex="0078"/>
  <outline>
    <contour>
      <point x="450" y="518" type="line"/>
      <point x="415" y="518" type="line"/>
      <point x="245" y="292" type="line"/>
      <point x="75" y="518" type="line"/>
      <point x="40" y="518" type="line"/>
      <point x="228" y="269" type="line"/>
      <point x="25" y="0" type="line"/>
      <point x="60" y="0" type="line"/>
      <point x="245" y="246" type="line"/>
      <point x="431" y="0" type="line"/>
      <point x="466" y="0" type="line"/>
      <point x="263" y="269" type="line"/>
    </contour>
  </outline>
</glyph>
<glyph name="y" format="2">
  <advance width="469"/>
  <unicode hex="0079"/>
  <outline>
    <contour>
      <point x="414" y="518" type="line"/>
      <point x="235" y="46" type="line"/>
      <point x="55" y="518" type="line"/>
      <point x="25" y="518" type="line"/>
      <point x="220" y="7" type="line"/>
      <point x="184" y="-87" type="line"/>
      <point x="172" y="-117"/>
      <point x="143" y="-137"/>
      <point x="111" y="-137" type="curve"/>
      <point x="65" y="-137" type="line"/>
      <point x="65" y="-165" type="line"/>
      <point x="111" y="-165" type="line"/>
      <point x="155" y="-165"/>
      <point x="195" y="-137"/>
      <point x="210" y="-97" type="curve"/>
      <point x="444" y="518" type="line"/>
    </contour>
  </outline>
</glyph>
<glyph name="z" format="2">
  <advance width="514"/>
  <unicode hex="007A"/>
  <outline>
    <contour>
      <point x="443" y="490" type="line"/>
      <point x="443" y="518" type="line"/>
      <point x="76" y="518" type="line"/>
      <point x="76" y="490" type="line"/>
      <point x="408" y="490" type="line"/>
      <point x="55" y="28" type="line"/>
      <point x="55" y="0" type="line"/>
      <point x="459" y="0" type="line"/>
      <point x="459" y="28" type="line"/>
      <point x="90" y="28" type="line"/>
    </contour>
  </outline>
</glyph>
<glyph name="braceleft" format="2">
  <advance width="246"/>
  <unicode hex="007B"/>
  <outline>
    <contour>
      <point x="221" y="-170" type="line"/>
      <point x="162" y="-170"/>
      <point x="114" y="-124"/>
      <point x="114" y="-67" type="curve" smooth="yes"/>
      <point x="114" y="63" type="line" smooth="yes"/>
      <point x="114" y="100"/>
      <point x="102" y="240"/>
      <point x="45" y="240" type="curve"/>
      <point x="45" y="268" type="line"/>
      <point x="102" y="268"/>
      <point x="114" y="407"/>
      <point x="114" y="444" type="curve" smooth="yes"/>
      <point x="114" y="574" type="line" smooth="yes"/>
      <point x="114" y="631"/>
      <point x="162" y="678"/>
      <point x="221" y="678" type="curve"/>
      <point x="221" y="650" type="line"/>
      <point x="177" y="650"/>
      <point x="142" y="616"/>
      <point x="142" y="574" type="curve" smooth="yes"/>
      <point x="142" y="444" type="line" smooth="yes"/>
      <point x="142" y="390"/>
      <point x="130" y="291"/>
      <point x="84" y="254" type="curve"/>
      <point x="130" y="216"/>
      <point x="142" y="117"/>
      <point x="142" y="63" type="curve" smooth="yes"/>
      <point x="142" y="-67" type="line" smooth="yes"/>
      <point x="142" y="-109"/>
      <point x="177" y="-142"/>
      <point x="221" y="-142" type="curve"/>
    </contour>
  </outline>
</glyph>
<glyph name="bar" format="2">
  <advance width="201"/>
  <unicode hex="007C"/>
  <outline>
    <contour>
      <point x="116" y="-172" type="line"/>
      <point x="85" y="-172" type="line"/>
      <point x="85" y="679" type="line"/>
      <point x="116" y="679" type="line"/>
    </contour>
  </outline>
</glyph>
<glyph name="braceright" format="2">
  <advance width="246"/>
  <unicode hex="007D"/>
  <outline>
    <contour>
      <point x="25" y="-170" type="line"/>
      <point x="84" y="-170"/>
      <point x="132" y="-124"/>
      <point x="132" y="-67" type="curve" smooth="yes"/>
      <point x="132" y="63" type="line" smooth="yes"/>
      <point x="132" y="100"/>
      <point x="144" y="240"/>
      <point x="201" y="240" type="curve"/>
      <point x="201" y="268" type="line"/>
      <point x="144" y="268"/>
      <point x="132" y="407"/>
      <point x="132" y="444" type="curve" smooth="yes"/>
      <point x="132" y="574" type="line" smooth="yes"/>
      <point x="132" y="631"/>
      <point x="84" y="678"/>
      <point x="25" y="678" type="curve"/>
      <point x="25" y="650" type="line"/>
      <point x="68" y="650"/>
      <point x="104" y="616"/>
      <point x="104" y="574" type="curve" smooth="yes"/>
      <point x="104" y="444" type="line" smooth="yes"/>
      <point x="104" y="390"/>
      <point x="116" y="291"/>
      <point x="162" y="254" type="curve"/>
      <point x="116" y="216"/>
      <point x="104" y="117"/>
      <point x="104" y="63" type="curve" smooth="yes"/>
      <point x="104" y="-67" type="line" smooth="yes"/>
      <point x="104" y="-109"/>
      <point x="68" y="-142"/>
      <point x="25" y="-142" type="curve"/>
    </contour>
  </outline>
</glyph>
<glyph name="asciitilde" format="2">
  <advance width="434"/>
  <unicode hex="007E"/>
  <outline>
    <contour>
      <point x="372" y="242" type="line"/>
      <point x="355" y="231"/>
      <point x="333" y="222"/>
      <point x="307" y="222" type="curve" smooth="yes"/>
      <point x="277" y="222"/>
      <point x="244" y="236"/>
      <point x="212" y="249" type="curve" smooth="yes"/>
      <point x="182" y="261"/>
      <point x="152" y="274"/>
      <point x="128" y="274" type="curve"/>
      <point x="99" y="274"/>
      <point x="75" y="258"/>
      <point x="62" y="246" type="curve"/>
      <point x="62" y="284" type="line"/>
      <point x="79" y="295"/>
      <point x="101" y="304"/>
      <point x="128" y="304" type="curve"/>
      <point x="158" y="304"/>
      <point x="191" y="290"/>
      <point x="223" y="277" type="curve" smooth="yes"/>
      <point x="253" y="265"/>
      <point x="283" y="252"/>
      <point x="307" y="252" type="curve" smooth="yes"/>
      <point x="336" y="252"/>
      <point x="359" y="267"/>
      <point x="372" y="279" type="curve"/>
    </contour>
  </outline>
</glyph>
<glyph name="dieresis" format="2">
  <advance width="76"/>
  <unicode hex="00A8"/>
  <outline>
    <contour>
      <point x="50" y="10" type="line"/>
      <point x="25" y="10" type="line"/>
      <point x="25" y="42" type="line"/>
      <point x="50" y="42" type="line"/>
    </contour>
    <contour>
      <point x="51" y="10" type="line"/>
      <point x="25" y="10" type="line"/>
      <point x="25" y="42" type="line"/>
      <point x="51" y="42" type="line"/>
    </contour>
  </outline>
</glyph>
<glyph name="copyright" format="2">
  <advance width="450"/>
  <unicode hex="00A9"/>
  <outline>
    <contour>
      <point x="225" y="434" type="curve" smooth="yes"/>
      <point x="126" y="434"/>
      <point x="45" y="353"/>
      <point x="45" y="254" type="curve" smooth="yes"/>
      <point x="45" y="154"/>
      <point x="126" y="74"/>
      <point x="225" y="74" type="curve" smooth="yes"/>
      <point x="324" y="74"/>
      <point x="405" y="154"/>
      <point x="405" y="254" type="curve" smooth="yes"/>
      <point x="405" y="353"/>
      <point x="324" y="434"/>
    </contour>
    <contour>
      <point x="225" y="102" type="curve" smooth="yes"/>
      <point x="141" y="102"/>
      <point x="73" y="170"/>
      <point x="73" y="254" type="curve" smooth="yes"/>
      <point x="73" y="338"/>
      <point x="141" y="406"/>
      <point x="225" y="406" type="curve" smooth="yes"/>
      <point x="309" y="406"/>
      <point x="377" y="338"/>
      <point x="377" y="254" type="curve" smooth="yes"/>
      <point x="377" y="170"/>
      <point x="309" y="102"/>
    </contour>
    <contour>
      <point x="230" y="337" type="curve" smooth="yes"/>
      <point x="262" y="337"/>
      <point x="291" y="318"/>
      <point x="305" y="289" type="curve"/>
      <point x="330" y="301" type="line"/>
      <point x="312" y="340"/>
      <point x="272" y="365"/>
      <point x="230" y="365" type="curve" smooth="yes"/>
      <point x="168" y="365"/>
      <point x="119" y="315"/>
      <point x="119" y="254" type="curve" smooth="yes"/>
      <point x="119" y="193"/>
      <point x="168" y="143"/>
      <point x="230" y="143" type="curve" smooth="yes"/>
      <point x="272" y="143"/>
      <point x="311" y="167"/>
      <point x="329" y="205" type="curve"/>
      <point x="304" y="217" type="line"/>
      <point x="290" y="189"/>
      <point x="261" y="171"/>
      <point x="230" y="171" type="curve" smooth="yes"/>
      <point x="184" y="171"/>
      <point x="147" y="208"/>
      <point x="147" y="254" type="curve" smooth="yes"/>
      <point x="147" y="299"/>
      <point x="184" y="337"/>
    </contour>
  </outline>
</glyph>
<glyph name="alef" format="2">
  <advance width="581"/>
  <unicode hex="05D0"/>
  <outline>
    <contour>
      <point x="45" y="0" type="curve"/>
      <point x="73" y="0" type="line"/>
      <point x="73" y="122"/>
      <point x="105" y="271"/>
      <point x="181" y="371" type="curve"/>
      <point x="499" y="0" type="line"/>
      <point x="536" y="0" type="line"/>
      <point x="405" y="153" type="line"/>
      <point x="486" y="262"/>
      <point x="499" y="387"/>
      <point x="499" y="519" type="curve"/>
      <point x="471" y="519" type="line"/>
      <point x="471" y="397"/>
      <point x="461" y="280"/>
      <point x="386" y="175" type="curve"/>
      <point x="91" y="519" type="line"/>
      <point x="58" y="519" type="line"/>
      <point x="56" y="517" type="line"/>
      <point x="162" y="392" type="line"/>
      <point x="83" y="292"/>
      <point x="45" y="128"/>
    </contour>
  </outline>
</glyph>
<glyph name="bet" format="2">
  <advance width="516"/>
  <unicode hex="05D1"/>
  <outline>
    <contour>
      <point x="406" y="28" type="line"/>
      <point x="406" y="316" type="line" smooth="yes"/>
      <point x="406" y="428"/>
      <point x="316" y="518"/>
      <point x="204" y="518" type="curve" smooth="yes"/>
      <point x="45" y="518" type="line"/>
      <point x="45" y="490" type="line"/>
      <point x="204" y="490" type="line" smooth="yes"/>
      <point x="300" y="490"/>
      <point x="378" y="412"/>
      <point x="378" y="316" type="curve" smooth="yes"/>
      <point x="378" y="28" type="line"/>
      <point x="45" y="28" type="line"/>
      <point x="45" y="0" type="line"/>
      <point x="471" y="0" type="line"/>
      <point x="471" y="28" type="line"/>
    </contour>
  </outline>
</glyph>
<glyph name="gimel" format="2">
  <advance width="399"/>
  <unicode hex="05D2"/>
  <outline>
    <contour>
      <point x="283" y="158" type="curve"/>
      <point x="316" y="0" type="line"/>
      <point x="344" y="0" type="line"/>
      <point x="236" y="519" type="line"/>
      <point x="94" y="519" type="line"/>
      <point x="94" y="491" type="line"/>
      <point x="213" y="491" type="line"/>
      <point x="268" y="227" type="line"/>
      <point x="268" y="115"/>
      <point x="148" y="28"/>
      <point x="45" y="28" type="curve"/>
      <point x="45" y="0" type="line"/>
      <point x="144" y="0"/>
      <point x="246" y="65"/>
    </contour>
  </outline>
</glyph>
<glyph name="dalet" format="2">
  <advance width="455"/>
  <unicode hex="05D3"/>
  <outline>
    <contour>
      <point x="430" y="518" type="line"/>
      <point x="25" y="518" type="line"/>
      <point x="25" y="490" type="line"/>
      <point x="334" y="490" type="line"/>
      <point x="334" y="0" type="line"/>
      <point x="362" y="0" type="line"/>
      <point x="362" y="490" type="line"/>
      <point x="430" y="490" type="line"/>
    </contour>
  </outline>
</glyph>
<glyph name="he" format="2">
  <advance width="531"/>
  <unicode hex="05D4"/>
  <outline>
    <contour>
      <point x="255" y="518" type="curve" smooth="yes"/>
      <point x="55" y="518" type="line"/>
      <point x="55" y="490" type="line"/>
      <point x="255" y="490" type="line" smooth="yes"/>
      <point x="350" y="490"/>
      <point x="428" y="412"/>
      <point x="428" y="317" type="curve" smooth="yes"/>
      <point x="428" y="0" type="line"/>
      <point x="456" y="0" type="line"/>
      <point x="456" y="317" type="line" smooth="yes"/>
      <point x="456" y="428"/>
      <point x="366" y="518"/>
    </contour>
    <contour>
      <point x="59" y="0" type="line"/>
      <point x="87" y="0" type="line"/>
      <point x="87" y="297" type="line"/>
      <point x="59" y="297" type="line"/>
    </contour>
  </outline>
</glyph>
<glyph name="vav" format="2">
  <advance width="198"/>
  <unicode hex="05D5"/>
  <outline>
    <contour>
      <point x="113" y="0" type="line"/>
      <point x="85" y="0" type="line"/>
      <point x="85" y="518" type="line"/>
      <point x="113" y="518" type="line"/>
    </contour>
  </outline>
</glyph>
<glyph name="zayin" format="2">
  <advance width="347"/>
  <unicode hex="05D6"/>
  <outline>
    <contour>
      <point x="302" y="518" type="line"/>
      <point x="25" y="518" type="line"/>
      <point x="25" y="490" type="line"/>
      <point x="134" y="490"/>
      <point x="207" y="417"/>
      <point x="207" y="308" type="curve" smooth="yes"/>
      <point x="207" y="0" type="line"/>
      <point x="235" y="0" type="line"/>
      <point x="235" y="308" type="line" smooth="yes"/>
      <point x="235" y="384"/>
      <point x="202" y="452"/>
      <point x="136" y="490" type="curve"/>
      <point x="302" y="490" type="line"/>
    </contour>
  </outline>
</glyph>
<glyph name="het" format="2">
  <advance width="571"/>
  <unicode hex="05D7"/>
  <outline>
    <contour>
      <point x="496" y="0" type="line"/>
      <point x="468" y="0" type="line"/>
      <point x="468" y="317" type="line" smooth="yes"/>
      <point x="468" y="412"/>
      <point x="390" y="490"/>
      <point x="295" y="490" type="curve" smooth="yes"/>
      <point x="113" y="490" type="line"/>
      <point x="113" y="0" type="line"/>
      <point x="85" y="0" type="line"/>
      <point x="85" y="518" type="line"/>
      <point x="295" y="518" type="line" smooth="yes"/>
      <point x="406" y="518"/>
      <point x="496" y="428"/>
      <point x="496" y="317" type="curve" smooth="yes"/>
    </contour>
  </outline>
</glyph>
<glyph name="tet" format="2">
  <advance width="590"/>
  <unicode hex="05D8"/>
  <outline>
    <contour>
      <point x="306" y="-5" type="curve" smooth="yes"/>
      <point x="165" y="-5"/>
      <point x="75" y="121"/>
      <point x="75" y="254" type="curve" smooth="yes"/>
      <point x="75" y="513" type="line"/>
      <point x="103" y="513" type="line"/>
      <point x="103" y="254" type="line" smooth="yes"/>
      <point x="103" y="124"/>
      <point x="192" y="23"/>
      <point x="305" y="23" type="curve" smooth="yes"/>
      <point x="418" y="23"/>
      <point x="507" y="124"/>
      <point x="507" y="257" type="curve" smooth="yes"/>
      <point x="507" y="360"/>
      <point x="454" y="485"/>
      <point x="305" y="485" type="curve"/>
      <point x="305" y="513" type="line"/>
      <point x="451" y="513"/>
      <point x="535" y="396"/>
      <point x="535" y="262" type="curve" smooth="yes"/>
      <point x="535" y="124"/>
      <point x="447" y="-5"/>
    </contour>
  </outline>
</glyph>
<glyph name="yod" format="2">
  <advance width="138"/>
  <unicode hex="05D9"/>
  <outline>
    <contour>
      <point x="83" y="237" type="line"/>
      <point x="55" y="237" type="line"/>
      <point x="55" y="507" type="line"/>
      <point x="83" y="507" type="line"/>
    </contour>
  </outline>
</glyph>
<glyph name="uni05DA" format="2">
  <advance width="451"/>
  <unicode hex="05DA"/>
  <outline>
    <contour>
      <point x="376" y="-130" type="line"/>
      <point x="348" y="-130" type="line"/>
      <point x="348" y="305" type="line" smooth="yes"/>
      <point x="348" y="407"/>
      <point x="265" y="490"/>
      <point x="163" y="490" type="curve" smooth="yes"/>
      <point x="25" y="490" type="line"/>
      <point x="25" y="518" type="line"/>
      <point x="163" y="518" type="line" smooth="yes"/>
      <point x="280" y="518"/>
      <point x="376" y="422"/>
      <point x="376" y="305" type="curve" smooth="yes"/>
    </contour>
  </outline>
</glyph>
<glyph name="kaf" format="2">
  <advance width="468"/>
  <unicode hex="05DB"/>
  <outline>
    <contour>
      <point x="190" y="0" type="curve" smooth="yes"/>
      <point x="25" y="0" type="line"/>
      <point x="25" y="28" type="line"/>
      <point x="190" y="28" type="line" smooth="yes"/>
      <point x="298" y="28"/>
      <point x="385" y="131"/>
      <point x="385" y="258" type="curve" smooth="yes"/>
      <point x="385" y="386"/>
      <point x="298" y="490"/>
      <point x="190" y="490" type="curve" smooth="yes"/>
      <point x="25" y="490" type="line"/>
      <point x="25" y="518" type="line"/>
      <point x="190" y="518" type="line" smooth="yes"/>
      <point x="326" y="518"/>
      <point x="413" y="386"/>
      <point x="413" y="258" type="curve" smooth="yes"/>
      <point x="413" y="130"/>
      <point x="327" y="0"/>
    </contour>
  </outline>
  <guideline angle="0" x="0" y="518"/>
</glyph>
<glyph name="lamed" format="2">
  <advance width="446"/>
  <unicode hex="05DC"/>
  <outline>
    <contour>
      <point x="192" y="0" type="line"/>
      <point x="222" y="0" type="line"/>
      <point x="421" y="518" type="line"/>
      <point x="53" y="518" type="line"/>
      <point x="53" y="643" type="line"/>
      <point x="25" y="643" type="line"/>
      <point x="25" y="490" type="line"/>
      <point x="380" y="490" type="line"/>
    </contour>
  </outline>
</glyph>
<glyph name="uni05DD" format="2">
  <advance width="572"/>
  <unicode hex="05DD"/>
  <outline>
    <contour>
      <point x="497" y="0" type="line"/>
      <point x="85" y="0" type="line"/>
      <point x="85" y="518" type="line"/>
      <point x="295" y="518" type="line" smooth="yes"/>
      <point x="406" y="518"/>
      <point x="497" y="430"/>
      <point x="497" y="322" type="curve" smooth="yes"/>
    </contour>
    <contour>
      <point x="113" y="28" type="line"/>
      <point x="469" y="28" type="line"/>
      <point x="469" y="322" type="line" smooth="yes"/>
      <point x="469" y="415"/>
      <point x="391" y="490"/>
      <point x="295" y="490" type="curve" smooth="yes"/>
      <point x="113" y="490" type="line"/>
    </contour>
  </outline>
</glyph>
<glyph name="mem" format="2">
  <advance width="619"/>
  <unicode hex="05DE"/>
  <outline>
    <contour>
      <point x="317" y="523" type="curve" smooth="yes"/>
      <point x="227" y="523"/>
      <point x="151" y="473"/>
      <point x="113" y="393" type="curve"/>
      <point x="113" y="518" type="line"/>
      <point x="85" y="518" type="line"/>
      <point x="85" y="277" type="line"/>
      <point x="85" y="273"/>
      <point x="85" y="269"/>
      <point x="85" y="265" type="curve" smooth="yes"/>
      <point x="85" y="260" type="line"/>
      <point x="85" y="0" type="line"/>
      <point x="113" y="0" type="line"/>
      <point x="113" y="276" type="line"/>
      <point x="119" y="379"/>
      <point x="173" y="495"/>
      <point x="315" y="495" type="curve" smooth="yes"/>
      <point x="464" y="495"/>
      <point x="516" y="366"/>
      <point x="516" y="263" type="curve" smooth="yes"/>
      <point x="516" y="130"/>
      <point x="428" y="28"/>
      <point x="315" y="28" type="curve"/>
      <point x="315" y="0" type="line"/>
      <point x="457" y="0"/>
      <point x="544" y="131"/>
      <point x="544" y="265" type="curve" smooth="yes"/>
      <point x="544" y="397"/>
      <point x="460" y="523"/>
    </contour>
  </outline>
</glyph>
<glyph name="uni05DF" format="2">
  <advance width="198"/>
  <unicode hex="05DF"/>
  <outline>
    <contour>
      <point x="113" y="-130" type="line"/>
      <point x="85" y="-130" type="line"/>
      <point x="85" y="518" type="line"/>
      <point x="113" y="518" type="line"/>
    </contour>
  </outline>
</glyph>
<glyph name="nun" format="2">
  <advance width="301"/>
  <unicode hex="05E0"/>
  <outline>
    <contour>
      <point x="93" y="0" type="curve" smooth="yes"/>
      <point x="25" y="0" type="line"/>
      <point x="25" y="28" type="line"/>
      <point x="93" y="28" type="line" smooth="yes"/>
      <point x="161" y="28"/>
      <point x="216" y="83"/>
      <point x="216" y="151" type="curve" smooth="yes"/>
      <point x="216" y="490" type="line"/>
      <point x="102" y="490" type="line"/>
      <point x="102" y="518" type="line"/>
      <point x="244" y="518" type="line"/>
      <point x="244" y="151" type="line" smooth="yes"/>
      <point x="244" y="68"/>
      <point x="176" y="0"/>
    </contour>
  </outline>
</glyph>
<glyph name="samekh" format="2">
  <advance width="590"/>
  <unicode hex="05E1"/>
  <outline>
    <contour>
      <point x="306" y="-5" type="curve" smooth="yes"/>
      <point x="162" y="-5"/>
      <point x="75" y="124"/>
      <point x="75" y="259" type="curve" smooth="yes"/>
      <point x="75" y="518" type="line"/>
      <point x="305" y="518" type="line" smooth="yes"/>
      <point x="453" y="518"/>
      <point x="535" y="401"/>
      <point x="535" y="265" type="curve" smooth="yes"/>
      <point x="535" y="128"/>
      <point x="451" y="-5"/>
    </contour>
    <contour>
      <point x="103" y="490" type="line"/>
      <point x="103" y="259" type="line" smooth="yes"/>
      <point x="103" y="129"/>
      <point x="192" y="23"/>
      <point x="305" y="23" type="curve" smooth="yes"/>
      <point x="419" y="23"/>
      <point x="507" y="129"/>
      <point x="507" y="263" type="curve" smooth="yes"/>
      <point x="507" y="366"/>
      <point x="454" y="490"/>
      <point x="305" y="490" type="curve" smooth="yes"/>
    </contour>
  </outline>
</glyph>
<glyph name="ayin" format="2">
  <advance width="492"/>
  <unicode hex="05E2"/>
  <outline>
    <contour>
      <point x="419" y="518" type="line"/>
      <point x="419" y="370" type="line" smooth="yes"/>
      <point x="419" y="198"/>
      <point x="348" y="85"/>
      <point x="202" y="28" type="curve"/>
      <point x="88" y="518" type="line"/>
      <point x="59" y="518" type="line"/>
      <point x="176" y="19" type="line"/>
      <point x="132" y="5"/>
      <point x="81" y="-5"/>
      <point x="25" y="-10" type="curve"/>
      <point x="28" y="-38" type="line"/>
      <point x="271" y="-15"/>
      <point x="447" y="98"/>
      <point x="447" y="370" type="curve" smooth="yes"/>
      <point x="447" y="518" type="line"/>
    </contour>
  </outline>
</glyph>
<glyph name="uni05E3" format="2">
  <advance width="493"/>
  <unicode hex="05E3"/>
  <outline>
    <contour>
      <point x="418" y="-130" type="line"/>
      <point x="390" y="-130" type="line"/>
      <point x="390" y="317" type="line"/>
      <point x="390" y="412"/>
      <point x="312" y="490"/>
      <point x="216" y="490" type="curve"/>
      <point x="83" y="490" type="line"/>
      <point x="83" y="243" type="line"/>
      <point x="55" y="243" type="line"/>
      <point x="55" y="518" type="line"/>
      <point x="216" y="518" type="line"/>
      <point x="327" y="518"/>
      <point x="418" y="428"/>
      <point x="418" y="317" type="curve"/>
    </contour>
  </outline>
</glyph>
<glyph name="pe" format="2">
  <advance width="559"/>
  <unicode hex="05E4"/>
  <outline>
    <contour>
      <point x="275" y="0" type="curve" smooth="yes"/>
      <point x="117" y="0" type="line"/>
      <point x="117" y="28" type="line"/>
      <point x="275" y="28" type="line" smooth="yes"/>
      <point x="388" y="28"/>
      <point x="476" y="130"/>
      <point x="476" y="260" type="curve" smooth="yes"/>
      <point x="476" y="371"/>
      <point x="413" y="495"/>
      <point x="275" y="495" type="curve" smooth="yes"/>
      <point x="136" y="495"/>
      <point x="73" y="371"/>
      <point x="73" y="259" type="curve" smooth="yes"/>
      <point x="73" y="242"/>
      <point x="74" y="224"/>
      <point x="77" y="207" type="curve"/>
      <point x="50" y="202" type="line"/>
      <point x="47" y="221"/>
      <point x="45" y="240"/>
      <point x="45" y="258" type="curve" smooth="yes"/>
      <point x="45" y="394"/>
      <point x="131" y="523"/>
      <point x="274" y="523" type="curve" smooth="yes"/>
      <point x="415" y="523"/>
      <point x="504" y="396"/>
      <point x="504" y="262" type="curve" smooth="yes"/>
      <point x="504" y="130"/>
      <point x="416" y="0"/>
    </contour>
  </outline>
</glyph>
<glyph name="uni05E5" format="2">
  <advance width="549"/>
  <unicode hex="05E5"/>
  <outline>
    <contour>
      <point x="509" y="518" type="line"/>
      <point x="476" y="518" type="line"/>
      <point x="271" y="170" type="line"/>
      <point x="72" y="518" type="line"/>
      <point x="40" y="518" type="line"/>
      <point x="410" y="-130" type="line"/>
      <point x="442" y="-130" type="line"/>
      <point x="286" y="142" type="line"/>
    </contour>
  </outline>
</glyph>
<glyph name="tsadi" format="2">
  <advance width="536"/>
  <unicode hex="05E6"/>
  <outline>
    <contour>
      <point x="487" y="26" type="line" smooth="yes"/>
      <point x="428" y="60"/>
      <point x="364" y="108"/>
      <point x="303" y="167" type="curve"/>
      <point x="382" y="235"/>
      <point x="467" y="415"/>
      <point x="479" y="518" type="curve"/>
      <point x="451" y="518" type="line"/>
      <point x="439" y="422"/>
      <point x="356" y="248"/>
      <point x="283" y="186" type="curve"/>
      <point x="185" y="283"/>
      <point x="97" y="403"/>
      <point x="55" y="518" type="curve"/>
      <point x="25" y="518" type="line"/>
      <point x="89" y="333"/>
      <point x="267" y="136"/>
      <point x="431" y="28" type="curve"/>
      <point x="44" y="28" type="line"/>
      <point x="44" y="0" type="line"/>
      <point x="491" y="0" type="line"/>
      <point x="491" y="24" type="line"/>
    </contour>
  </outline>
</glyph>
<glyph name="qof" format="2">
  <advance width="526"/>
  <unicode hex="05E7"/>
  <outline>
    <contour>
      <point x="48" y="-130" type="line"/>
      <point x="76" y="-130" type="line"/>
      <point x="76" y="357" type="line"/>
      <point x="48" y="357" type="line"/>
    </contour>
    <contour>
      <point x="45" y="518" type="line"/>
      <point x="45" y="490" type="line"/>
      <point x="423" y="490" type="line"/>
      <point x="423" y="259" type="line" smooth="yes"/>
      <point x="423" y="129"/>
      <point x="334" y="28"/>
      <point x="221" y="28" type="curve"/>
      <point x="221" y="0" type="line"/>
      <point x="361" y="0"/>
      <point x="451" y="127"/>
      <point x="451" y="259" type="curve" smooth="yes"/>
      <point x="451" y="518" type="line"/>
    </contour>
  </outline>
</glyph>
<glyph name="resh" format="2">
  <advance width="466"/>
  <unicode hex="05E8"/>
  <outline>
    <contour>
      <point x="391" y="0" type="line"/>
      <point x="363" y="0" type="line"/>
      <point x="363" y="317" type="line" smooth="yes"/>
      <point x="363" y="412"/>
      <point x="285" y="490"/>
      <point x="189" y="490" type="curve" smooth="yes"/>
      <point x="25" y="490" type="line"/>
      <point x="25" y="518" type="line"/>
      <point x="189" y="518" type="line" smooth="yes"/>
      <point x="300" y="518"/>
      <point x="391" y="428"/>
      <point x="391" y="317" type="curve" smooth="yes"/>
    </contour>
  </outline>
</glyph>
<glyph name="shin" format="2">
  <advance width="628"/>
  <unicode hex="05E9"/>
  <outline>
    <contour>
      <point x="525" y="240" type="line" smooth="yes"/>
      <point x="525" y="121"/>
      <point x="443" y="28"/>
      <point x="339" y="28" type="curve" smooth="yes"/>
      <point x="142" y="28" type="line"/>
      <point x="124" y="153" type="line"/>
      <point x="131" y="153" type="line" smooth="yes"/>
      <point x="232" y="153"/>
      <point x="336" y="180"/>
      <point x="336" y="301" type="curve" smooth="yes"/>
      <point x="336" y="518" type="line"/>
      <point x="308" y="518" type="line"/>
      <point x="308" y="301" type="line" smooth="yes"/>
      <point x="308" y="198"/>
      <point x="215" y="181"/>
      <point x="131" y="181" type="curve" smooth="yes"/>
      <point x="120" y="181" type="line"/>
      <point x="73" y="518" type="line"/>
      <point x="45" y="518" type="line"/>
      <point x="117" y="0" type="line"/>
      <point x="339" y="0" type="line" smooth="yes"/>
      <point x="469" y="0"/>
      <point x="553" y="118"/>
      <point x="553" y="240" type="curve" smooth="yes"/>
      <point x="553" y="518" type="line"/>
      <point x="525" y="518" type="line"/>
    </contour>
  </outline>
  <guideline angle="0" x="0" y="-3980"/>
</glyph>
<glyph name="tav" format="2">
  <advance width="574"/>
  <unicode hex="05EA"/>
  <outline>
    <contour>
      <point x="298" y="518" type="curve" smooth="yes"/>
      <point x="47" y="518" type="line"/>
      <point x="47" y="490" type="line"/>
      <point x="118" y="490" type="line"/>
      <point x="118" y="28" type="line"/>
      <point x="25" y="28" type="line"/>
      <point x="25" y="0" type="line"/>
      <point x="146" y="0" type="line"/>
      <point x="146" y="490" type="line"/>
      <point x="298" y="490" type="line" smooth="yes"/>
      <point x="394" y="490"/>
      <point x="471" y="412"/>
      <point x="471" y="317" type="curve" smooth="yes"/>
      <point x="471" y="0" type="line"/>
      <point x="499" y="0" type="line"/>
      <point x="499" y="317" type="line" smooth="yes"/>
      <point x="499" y="428"/>
      <point x="409" y="518"/>
    </contour>
  </outline>
</glyph>
<glyph name="endash" format="2">
  <advance width="410"/>
  <unicode hex="2013"/>
  <outline>
    <contour>
      <point x="385" y="350" type="line"/>
      <point x="25" y="350" type="line"/>
      <point x="25" y="378" type="line"/>
      <point x="385" y="378" type="line"/>
    </contour>
  </outline>
</glyph>
<glyph name="emdash" format="2">
  <advance width="500"/>
  <unicode hex="2014"/>
  <outline>
    <contour>
      <point x="475" y="350" type="line"/>
      <point x="25" y="350" type="line"/>
      <point x="25" y="378" type="line"/>
      <point x="475" y="378" type="line"/>
    </contour>
  </outline>
</glyph>
<glyph name="quoteleft" format="2">
  <advance width="142"/>
  <unicode hex="2018"/>
  <outline>
    <contour>
      <point x="53" y="460" type="curve"/>
      <point x="25" y="460" type="line"/>
      <point x="30" y="514"/>
      <point x="57" y="583"/>
      <point x="83" y="624" type="curve"/>
      <point x="117" y="624" type="line"/>
      <point x="93" y="596"/>
      <point x="60" y="519"/>
    </contour>
  </outline>
</glyph>
<glyph name="quoteright" format="2">
  <advance width="142"/>
  <unicode hex="2019"/>
  <outline>
    <contour>
      <point x="89" y="624" type="curve"/>
      <point x="117" y="624" type="line"/>
      <point x="112" y="570"/>
      <point x="85" y="501"/>
      <point x="59" y="460" type="curve"/>
      <point x="25" y="460" type="line"/>
      <point x="49" y="488"/>
      <point x="82" y="565"/>
    </contour>
  </outline>
</glyph>
<glyph name="quotesinglbase" format="2">
  <advance width="152"/>
  <unicode hex="201A"/>
  <outline>
    <contour>
      <point x="94" y="76" type="line"/>
      <point x="88" y="17"/>
      <point x="54" y="-60"/>
      <point x="30" y="-88" type="curve"/>
      <point x="64" y="-88" type="line"/>
      <point x="91" y="-47"/>
      <point x="117" y="22"/>
      <point x="122" y="76" type="curve"/>
    </contour>
  </outline>
</glyph>
<glyph name="quotedblleft" format="2">
  <advance width="218"/>
  <unicode hex="201C"/>
  <outline>
    <contour>
      <point x="128.988" y="410.761" type="line"/>
      <point x="135.988" y="469.761"/>
      <point x="168.988" y="546.761"/>
      <point x="192.988" y="574.761" type="curve"/>
      <point x="158.988" y="574.761" type="line"/>
      <point x="132.988" y="533.761"/>
      <point x="105.988" y="464.761"/>
      <point x="100.988" y="410.761" type="curve"/>
    </contour>
    <contour>
      <point x="53" y="411" type="line"/>
      <point x="59" y="470"/>
      <point x="93" y="547"/>
      <point x="117" y="575" type="curve"/>
      <point x="83" y="575" type="line"/>
      <point x="56" y="534"/>
      <point x="30" y="465"/>
      <point x="25" y="411" type="curve"/>
    </contour>
  </outline>
</glyph>
<glyph name="quotedblright" format="2">
  <advance width="218"/>
  <unicode hex="201D"/>
  <outline>
    <contour>
      <point x="165.276" y="574.796" type="line"/>
      <point x="158.834" y="515.791"/>
      <point x="125.063" y="438.678"/>
      <point x="100.988" y="410.761" type="curve"/>
      <point x="135.485" y="410.761" type="line"/>
      <point x="161.672" y="451.586"/>
      <point x="188.036" y="520.792"/>
      <point x="193.378" y="574.796" type="curve"/>
    </contour>
    <contour>
      <point x="89" y="575" type="line"/>
      <point x="83" y="516"/>
      <point x="49" y="439"/>
      <point x="25" y="411" type="curve"/>
      <point x="59" y="411" type="line"/>
      <point x="86" y="452"/>
      <point x="112" y="521"/>
      <point x="117" y="575" type="curve"/>
    </contour>
  </outline>
</glyph>
<glyph name="quotedblbase" format="2">
  <advance width="218"/>
  <unicode hex="201E"/>
  <outline>
    <contour>
      <point x="164.988" y="76" type="line"/>
      <point x="158.988" y="17"/>
      <point x="124.988" y="-60"/>
      <point x="100.988" y="-88" type="curve"/>
      <point x="134.988" y="-88" type="line"/>
      <point x="161.988" y="-47"/>
      <point x="187.988" y="22"/>
      <point x="192.988" y="76" type="curve"/>
    </contour>
    <contour>
      <point x="89" y="76" type="line"/>
      <point x="83" y="17"/>
      <point x="49" y="-60"/>
      <point x="25" y="-88" type="curve"/>
      <point x="59" y="-88" type="line"/>
      <point x="86" y="-47"/>
      <point x="112" y="22"/>
      <point x="117" y="76" type="curve"/>
    </contour>
  </outline>
</glyph>
<glyph name="uni20AA" format="2">
  <advance width="513"/>
  <unicode hex="20AA"/>
  <outline>
    <contour>
      <point x="237" y="0" type="curve" smooth="yes"/>
      <point x="194" y="0" type="line"/>
      <point x="194" y="326" type="line"/>
      <point x="222" y="326" type="line"/>
      <point x="222" y="28" type="line"/>
      <point x="237" y="28" type="line" smooth="yes"/>
      <point x="333" y="28"/>
      <point x="410" y="106"/>
      <point x="410" y="201" type="curve"/>
      <point x="410" y="518" type="line"/>
      <point x="438" y="518" type="line"/>
      <point x="438" y="201" type="line"/>
      <point x="438" y="90"/>
      <point x="348" y="0"/>
    </contour>
    <contour>
      <point x="113" y="0" type="line"/>
      <point x="85" y="0" type="line"/>
      <point x="85" y="518" type="line"/>
      <point x="129" y="518" type="line"/>
      <point x="240" y="518"/>
      <point x="330" y="428"/>
      <point x="330" y="317" type="curve" smooth="yes"/>
      <point x="330" y="191" type="line"/>
      <point x="302" y="191" type="line"/>
      <point x="302" y="317" type="line" smooth="yes"/>
      <point x="302" y="412"/>
      <point x="224" y="490"/>
      <point x="129" y="490" type="curve"/>
      <point x="113" y="490" type="line"/>
    </contour>
  </outline>
</glyph>
<glyph name="Euro" format="2">
  <advance width="580"/>
  <unicode hex="20AC"/>
  <outline>
    <contour>
      <point x="506" y="172" type="line"/>
      <point x="482" y="78"/>
      <point x="414" y="23"/>
      <point x="329" y="23" type="curve" smooth="yes"/>
      <point x="212" y="23"/>
      <point x="123" y="128"/>
      <point x="123" y="258" type="curve" smooth="yes"/>
      <point x="123" y="389"/>
      <point x="212" y="495"/>
      <point x="329" y="495" type="curve" smooth="yes"/>
      <point x="413" y="495"/>
      <point x="481" y="440"/>
      <point x="506" y="346" type="curve"/>
      <point x="535" y="346" type="line"/>
      <point x="510" y="449"/>
      <point x="434" y="523"/>
      <point x="327" y="523" type="curve" smooth="yes"/>
      <point x="184" y="523"/>
      <point x="95" y="390"/>
      <point x="95" y="257" type="curve" smooth="yes"/>
      <point x="95" y="124"/>
      <point x="184" y="-5"/>
      <point x="327" y="-5" type="curve" smooth="yes"/>
      <point x="435" y="-5"/>
      <point x="511" y="68"/>
      <point x="535" y="172" type="curve"/>
    </contour>
    <contour>
      <point x="345" y="212" type="line"/>
      <point x="45" y="212" type="line"/>
      <point x="45" y="184" type="line"/>
      <point x="345" y="184" type="line"/>
    </contour>
    <contour>
      <point x="345" y="323" type="line"/>
      <point x="45" y="323" type="line"/>
      <point x="45" y="295" type="line"/>
      <point x="345" y="295" type="line"/>
    </contour>
  </outline>
</glyph>
